<mxfile host="app.diagrams.net" agent="Mozilla/5.0 (Macintosh; Intel Mac OS X 10_15_7) AppleWebKit/537.36 (KHTML, like Gecko) Chrome/133.0.0.0 Safari/537.36" version="26.0.16">
  <diagram name="Page-1" id="fHsShUkWuFIj2a46Asa1">
    <mxGraphModel dx="984" dy="659" grid="1" gridSize="10" guides="1" tooltips="1" connect="1" arrows="1" fold="1" page="1" pageScale="1" pageWidth="850" pageHeight="1100" math="0" shadow="0">
      <root>
        <mxCell id="0" />
        <mxCell id="1" parent="0" />
        <mxCell id="cPPZrzrKtQ6V4R_FcOBa-1" value="&lt;span class=&quot;hljs-symbol&quot;&gt;&amp;lt;&amp;lt;Device&amp;gt;&amp;gt;&lt;/span&gt; &lt;span class=&quot;hljs-keyword&quot;&gt;User&lt;/span&gt;" style="verticalAlign=top;align=left;shape=cube;size=10;direction=south;fontStyle=0;html=1;boundedLbl=1;spacingLeft=5;whiteSpace=wrap;" vertex="1" parent="1">
          <mxGeometry x="10" y="40" width="160" height="160" as="geometry" />
        </mxCell>
        <mxCell id="cPPZrzrKtQ6V4R_FcOBa-2" value="- Uses Browser (Chrome, Edge, Firefox)&lt;div&gt;- Accesses website via HTTPS&lt;/div&gt;" style="verticalAlign=top;align=left;shape=cube;size=10;direction=south;html=1;boundedLbl=1;spacingLeft=5;whiteSpace=wrap;" vertex="1" parent="cPPZrzrKtQ6V4R_FcOBa-1">
          <mxGeometry width="110" height="110" relative="1" as="geometry">
            <mxPoint x="20" y="40" as="offset" />
          </mxGeometry>
        </mxCell>
        <mxCell id="cPPZrzrKtQ6V4R_FcOBa-3" value="&amp;nbsp; &amp;nbsp; Web &lt;span class=&quot;hljs-keyword&quot;&gt;Server&lt;/span&gt;&lt;div&gt;&lt;span style=&quot;background-color: transparent; color: light-dark(rgb(0, 0, 0), rgb(255, 255, 255));&quot;&gt;Azure Static Web Apps&lt;/span&gt;&lt;/div&gt;" style="verticalAlign=top;align=left;shape=cube;size=10;direction=south;fontStyle=0;html=1;boundedLbl=1;spacingLeft=5;whiteSpace=wrap;" vertex="1" parent="1">
          <mxGeometry x="210" y="40" width="170" height="160" as="geometry" />
        </mxCell>
        <mxCell id="cPPZrzrKtQ6V4R_FcOBa-4" value="&lt;span class=&quot;hljs-keyword&quot;&gt;index&lt;/span&gt;.html,&lt;div&gt;app.js, styles.css&lt;/div&gt;" style="verticalAlign=top;align=left;shape=cube;size=10;direction=south;html=1;boundedLbl=1;spacingLeft=5;whiteSpace=wrap;" vertex="1" parent="cPPZrzrKtQ6V4R_FcOBa-3">
          <mxGeometry width="90" height="90" relative="1" as="geometry">
            <mxPoint x="20" y="60" as="offset" />
          </mxGeometry>
        </mxCell>
        <mxCell id="cPPZrzrKtQ6V4R_FcOBa-6" value="" style="image;aspect=fixed;perimeter=ellipsePerimeter;html=1;align=center;shadow=0;dashed=0;spacingTop=3;image=img/lib/active_directory/web_server.svg;" vertex="1" parent="cPPZrzrKtQ6V4R_FcOBa-3">
          <mxGeometry x="120.0025" y="40" width="40" height="50" as="geometry" />
        </mxCell>
        <mxCell id="cPPZrzrKtQ6V4R_FcOBa-7" value="Azure App Service&amp;nbsp;&lt;div&gt;FastAPI Backend&lt;/div&gt;&lt;div&gt;Docker&lt;/div&gt;" style="verticalAlign=top;align=left;shape=cube;size=10;direction=south;fontStyle=0;html=1;boundedLbl=1;spacingLeft=5;whiteSpace=wrap;" vertex="1" parent="1">
          <mxGeometry x="425" y="40" width="188" height="160" as="geometry" />
        </mxCell>
        <mxCell id="cPPZrzrKtQ6V4R_FcOBa-8" value="API requests &amp;amp; business logic&amp;nbsp;&lt;div&gt;app.py, models.py, routes.py, &lt;span class=&quot;hljs-keyword&quot;&gt;schemas&lt;/span&gt;.py&amp;nbsp; &amp;nbsp;&lt;/div&gt;" style="verticalAlign=top;align=left;shape=cube;size=10;direction=south;html=1;boundedLbl=1;spacingLeft=5;whiteSpace=wrap;" vertex="1" parent="cPPZrzrKtQ6V4R_FcOBa-7">
          <mxGeometry width="150" height="80" relative="1" as="geometry">
            <mxPoint x="15" y="71" as="offset" />
          </mxGeometry>
        </mxCell>
        <mxCell id="cPPZrzrKtQ6V4R_FcOBa-10" value="" style="shape=image;html=1;verticalAlign=top;verticalLabelPosition=bottom;labelBackgroundColor=#ffffff;imageAspect=0;aspect=fixed;image=https://cdn1.iconfinder.com/data/icons/unicons-line-vol-3/24/docker-128.png" vertex="1" parent="cPPZrzrKtQ6V4R_FcOBa-7">
          <mxGeometry x="100" width="80" height="80" as="geometry" />
        </mxCell>
        <mxCell id="cPPZrzrKtQ6V4R_FcOBa-11" value="&amp;nbsp;Azure Blob &lt;span class=&quot;hljs-keyword&quot;&gt;Storage&lt;/span&gt;&amp;nbsp;" style="verticalAlign=top;align=left;shape=cube;size=10;direction=south;fontStyle=0;html=1;boundedLbl=1;spacingLeft=5;whiteSpace=wrap;" vertex="1" parent="1">
          <mxGeometry x="640" y="70" width="180" height="130" as="geometry" />
        </mxCell>
        <mxCell id="cPPZrzrKtQ6V4R_FcOBa-12" value="log files" style="verticalAlign=top;align=left;shape=cube;size=10;direction=south;html=1;boundedLbl=1;spacingLeft=5;whiteSpace=wrap;" vertex="1" parent="cPPZrzrKtQ6V4R_FcOBa-11">
          <mxGeometry width="70" height="50" relative="1" as="geometry">
            <mxPoint x="15" y="71" as="offset" />
          </mxGeometry>
        </mxCell>
        <mxCell id="cPPZrzrKtQ6V4R_FcOBa-14" value="" style="sketch=0;pointerEvents=1;shadow=0;dashed=0;html=1;strokeColor=none;fillColor=#DF8C42;labelPosition=center;verticalLabelPosition=bottom;verticalAlign=top;align=center;outlineConnect=0;shape=mxgraph.veeam2.azure_blob;" vertex="1" parent="cPPZrzrKtQ6V4R_FcOBa-11">
          <mxGeometry x="110" y="40" width="38.3" height="40" as="geometry" />
        </mxCell>
        <mxCell id="cPPZrzrKtQ6V4R_FcOBa-15" value="&amp;nbsp;Azure DataBase&amp;nbsp;" style="verticalAlign=top;align=left;shape=cube;size=10;direction=south;fontStyle=0;html=1;boundedLbl=1;spacingLeft=5;whiteSpace=wrap;" vertex="1" parent="1">
          <mxGeometry x="640" y="240" width="180" height="160" as="geometry" />
        </mxCell>
        <mxCell id="cPPZrzrKtQ6V4R_FcOBa-16" value="Tables&lt;div&gt;-Products&lt;/div&gt;&lt;div&gt;- Orders&lt;/div&gt;&lt;div&gt;- Users&lt;/div&gt;&lt;div&gt;- Suppliers&lt;/div&gt;" style="verticalAlign=top;align=left;shape=cube;size=10;direction=south;html=1;boundedLbl=1;spacingLeft=5;whiteSpace=wrap;" vertex="1" parent="cPPZrzrKtQ6V4R_FcOBa-15">
          <mxGeometry width="90" height="90" relative="1" as="geometry">
            <mxPoint x="10" y="50" as="offset" />
          </mxGeometry>
        </mxCell>
        <mxCell id="cPPZrzrKtQ6V4R_FcOBa-18" value="" style="image;aspect=fixed;html=1;points=[];align=center;fontSize=12;image=img/lib/azure2/databases/Azure_Database_PostgreSQL_Server.svg;" vertex="1" parent="cPPZrzrKtQ6V4R_FcOBa-15">
          <mxGeometry x="117" y="32" width="43.5" height="58" as="geometry" />
        </mxCell>
        <mxCell id="cPPZrzrKtQ6V4R_FcOBa-56" style="edgeStyle=orthogonalEdgeStyle;rounded=0;orthogonalLoop=1;jettySize=auto;html=1;exitX=0;exitY=0;exitDx=85;exitDy=190;exitPerimeter=0;" edge="1" parent="1" source="cPPZrzrKtQ6V4R_FcOBa-19" target="cPPZrzrKtQ6V4R_FcOBa-27">
          <mxGeometry relative="1" as="geometry" />
        </mxCell>
        <mxCell id="cPPZrzrKtQ6V4R_FcOBa-19" value="Terraform (Infrastructure &lt;span class=&quot;hljs-keyword&quot;&gt;as&lt;/span&gt; Code)" style="verticalAlign=top;align=left;shape=cube;size=10;direction=south;fontStyle=0;html=1;boundedLbl=1;spacingLeft=5;whiteSpace=wrap;" vertex="1" parent="1">
          <mxGeometry x="310" y="270" width="190" height="160" as="geometry" />
        </mxCell>
        <mxCell id="cPPZrzrKtQ6V4R_FcOBa-20" value="&lt;div&gt;deployment &amp;amp; provisioning&lt;/div&gt;main.tf, variables.tf, terraform.tfstate&amp;nbsp;" style="verticalAlign=top;align=left;shape=cube;size=10;direction=south;html=1;boundedLbl=1;spacingLeft=5;whiteSpace=wrap;" vertex="1" parent="cPPZrzrKtQ6V4R_FcOBa-19">
          <mxGeometry width="110" height="90" relative="1" as="geometry">
            <mxPoint x="9" y="54" as="offset" />
          </mxGeometry>
        </mxCell>
        <mxCell id="cPPZrzrKtQ6V4R_FcOBa-25" value="" style="shape=image;imageAspect=0;aspect=fixed;verticalLabelPosition=bottom;verticalAlign=top;image=data:image/svg+xml,PHN2ZyB4bWxucz0iaHR0cDovL3d3dy53My5vcmcvMjAwMC9zdmciIHZpZXdCb3g9IjMuNTQwOTk5NDEyNTM2NjIxIDIgMjQuOTE3OTk5MjY3NTc4MTI1IDI4IiB3aWR0aD0iMjQuOTE3OTk5MjY3NTc4MTI1IiBoZWlnaHQ9IjI4Ij48ZyBmaWxsPSIjODEzY2YzIj48cGF0aCBkPSJtMTIuMDQyIDYuODU4IDguMDI5IDQuNTl2OS4wMTRsLTguMDI5LTQuNTk0eiIvPjxwYXRoIGQ9Im0yMC41IDIwLjQxNSA3Ljk1OS00LjU3NXYtOC45NTNsLTcuOTU5IDQuNTQyeiIvPjxwYXRoIGQ9Im0zLjU0MSAxMS4wMSA4LjAzIDQuNTg5di05LjAwOWwtOC4wMy00LjU5eiIvPjxwYXRoIGQ9Im0xMi4wNDIgMjUuNDEgOC4wMjkgNC41OXYtOS4wNDNsLTguMDI5LTQuNTg5eiIvPjwvZz48L3N2Zz4=;" vertex="1" parent="cPPZrzrKtQ6V4R_FcOBa-19">
          <mxGeometry x="129.83333333333334" y="40" width="44.64" height="50" as="geometry" />
        </mxCell>
        <mxCell id="cPPZrzrKtQ6V4R_FcOBa-57" value="" style="endArrow=classic;startArrow=classic;html=1;rounded=0;exitX=-0.008;exitY=0.609;exitDx=0;exitDy=0;exitPerimeter=0;" edge="1" parent="cPPZrzrKtQ6V4R_FcOBa-19" source="cPPZrzrKtQ6V4R_FcOBa-30">
          <mxGeometry width="50" height="50" relative="1" as="geometry">
            <mxPoint x="20" y="190" as="sourcePoint" />
            <mxPoint x="70" y="140" as="targetPoint" />
          </mxGeometry>
        </mxCell>
        <mxCell id="cPPZrzrKtQ6V4R_FcOBa-26" value="&lt;div&gt;&lt;br&gt;&lt;/div&gt;&lt;div&gt;&lt;br&gt;&lt;/div&gt;&lt;div&gt;&lt;span style=&quot;background-color: transparent; color: light-dark(rgb(0, 0, 0), rgb(255, 255, 255));&quot;&gt;GitHub Actions (CI/CD)&lt;/span&gt;&lt;/div&gt;" style="verticalAlign=top;align=left;shape=cube;size=10;direction=south;fontStyle=0;html=1;boundedLbl=1;spacingLeft=5;whiteSpace=wrap;" vertex="1" parent="1">
          <mxGeometry x="20" y="280" width="220" height="160" as="geometry" />
        </mxCell>
        <mxCell id="cPPZrzrKtQ6V4R_FcOBa-27" value=".github/workflows/deploy.yml" style="verticalAlign=top;align=left;shape=cube;size=10;direction=south;html=1;boundedLbl=1;spacingLeft=5;whiteSpace=wrap;" vertex="1" parent="cPPZrzrKtQ6V4R_FcOBa-26">
          <mxGeometry width="170" height="50" relative="1" as="geometry">
            <mxPoint x="15" y="90" as="offset" />
          </mxGeometry>
        </mxCell>
        <mxCell id="cPPZrzrKtQ6V4R_FcOBa-29" value="" style="verticalLabelPosition=bottom;html=1;verticalAlign=top;align=center;strokeColor=none;fillColor=#00BEF2;shape=mxgraph.azure.github_code;pointerEvents=1;" vertex="1" parent="cPPZrzrKtQ6V4R_FcOBa-26">
          <mxGeometry x="143.00122222222225" y="20" width="61.111111111111114" height="50" as="geometry" />
        </mxCell>
        <mxCell id="cPPZrzrKtQ6V4R_FcOBa-30" value="Alembic Migrations" style="verticalAlign=top;align=left;shape=cube;size=10;direction=south;fontStyle=0;html=1;boundedLbl=1;spacingLeft=5;whiteSpace=wrap;" vertex="1" parent="1">
          <mxGeometry x="295" y="480" width="220" height="130" as="geometry" />
        </mxCell>
        <mxCell id="cPPZrzrKtQ6V4R_FcOBa-31" value="Migration Scripts&lt;div&gt;Apply Changes)&lt;/div&gt;" style="verticalAlign=top;align=left;shape=cube;size=10;direction=south;html=1;boundedLbl=1;spacingLeft=5;whiteSpace=wrap;" vertex="1" parent="cPPZrzrKtQ6V4R_FcOBa-30">
          <mxGeometry width="110" height="60" relative="1" as="geometry">
            <mxPoint x="9" y="50" as="offset" />
          </mxGeometry>
        </mxCell>
        <mxCell id="cPPZrzrKtQ6V4R_FcOBa-33" value="" style="shape=image;imageAspect=0;aspect=fixed;verticalLabelPosition=bottom;verticalAlign=top;image=data:image/jpeg,/9j/4AAQSkZJRgABAgAAZABkAAD/7AARRHVja3kAAQAEAAAAQQAA/+4AJkFkb2JlAGTAAAAAAQMAFQQDBgoNAAAnLQAAPH4AAF5LAACAC//bAIQABQQEBAQEBQQEBQcFBAUHCQcFBQcJCggICQgICg0KCwsLCwoNDAwMDQwMDA8PEREPDxcWFhYXGRkZGRkZGRkZGQEGBgYKCQoUDQ0UFhEOERYZGRkZGRkZGRkZGRkZGRkZGRkZGRkZGRkZGRkZGRkZGRkZGRkZGRkZGRkZGRkZGRkZ/8IAEQgB+wMgAwERAAIRAQMRAf/EAPIAAQADAAMBAQAAAAAAAAAAAAAFBgcDBAgCAQEBAAMBAQEBAAAAAAAAAAAAAAIDBAEFBgcQAAAFAgQFAwUBAQAAAAAAAAABAgMEEgUQUBEGIDBAMRNgMzQyFBU1FiGAEQABAgIDCAwMBwACAgMAAAABAgMAESExBBBRcbHREiJyUEFhgZGhwTJSEyMzMEBCYpKislNzJDQFIGDhgtJDFIDC8GPigxUSAAICAQMDBQAAAAAAAAAAAFABEIEAIBExYCGRoLDAYXETAQACAQIEBAYDAQEAAAAAAAEAETEhQRBRYXFAUIGhIDBg8JGxwdHx4YD/2gAMAwEAAhEDEQAAAdlAAAAAAAAAAAAAAAAAAAAAAAAAAAAAAAAAAAAAAAAAAAAAAAAAAAAAAAAAAAAAAAAAAAAAAAAAAAAAAAAAAAAAAAAAAAAAAAAAAAAAAAAAAAAAAAAAAAAAAAAAAAAAAAAAAAAAAAAAAAAAAAAAAAAAAAAAAAAAAAAAAAAAAAAAAAAAAAB8uQk49fvJCMpWMgAAAAAAAAAAAAAAAAAAAAAAAAAAAAAAAAAAAAAAAAAAAAAB1+8yrTmzrRT0+xAloz0rNfpWe/kdAAAAAAAAAAAAAAAAAAAAAAAAAAAAAAAAAAAAAAAAAA+Tpdjzu9jnR0ex8/b8UFON6ptu1F3b52HnCiX1VWyqy12b5h2d3kgAAAAAAAAAAAAAAAAAAAAAAAAAAAAAAAAAAAAAAABVbK8w056jbVwd5+k7Cej576ZdVUba91xa7rTcABR7qcR2ZLFXZ6Dw7f0AAAAAAAAAAAAAAAAAAAAAAAAAAAAAAAAAAAAAAAGSas2W6c0lGV/ovmoS6UuUu2qqW1DWcunVc2kAACh304bsx7li2Xym4AAAAAAAAAAAAAAAAAAAAAAAAAAAAAAAAAAAAAADNtGfGteXRaL9kx6uV0AUe6nO9FG54tnZ50AAAeavQwTsJ7xi2AAAAAAAAAAAAAAAAAAAAAAAAAAAAAAAAAAAAAADrd55k9Hz7PXZvmHb+gAAAAAAAwvbjgJw9J+fvAAAAAAAAAAAAAAAAAAAAAAAAAAAAAAAAAAAAAAFDupw3bj9EYN1mrsAAAAAAAAwTdijJc9HefuAAAAAAAAAAAAAAAAAAAAAAAAAAAAAAAAAAAAAFGupz6+mr218HeeqPM9H9AAAAAAAB8nl70vO7XO7Pj13Kq0AAAAAAAAAAAAAAAAAAAAAAAAAAAAAAAAAAADrd5he3HTrapGMrTXZZq7NOzaAAAAAAAABi+vJRb6un2N5pu2/Fr5nQAAAAAAAAAAAAAAAAAAAAAAAAAAAAAAAAAB+GAbsVUtr13Jp0vPf9ugAAAAAAAAAcLmV6s+Wac92pt3fFsAAAAAAAAAAAAAAAAAAAAAAAAAAAAAAAAAAGe30YnsybNk16RnvAAAAAAAAAAAAy3TnyPVl3XFsvNNwAAAAAAAAAAAAAAAAAAAAAAAAAAAAAAAAAHnjfh6veekfP3gAAAAAAAAAAAD5PNfo4JWEvQOHaAAAAAAAAAAAAAAAAAAAAAAAAAAAAAAAAAPlzyv6fn6Zmv17LqAAAAAAAAAAAAAxzXlzq+j1P5vo/pUr/k+v3OAPvllsp+p5uXgAAAAAAAAAAAAAAAAAAAAAAAAAAAAdXvPLfpedruXVqObQAAAAAAAAAAAABlenNkurN6p8z0eV3PdXwHTljAAuOf6+dr9wAAAAAAAAAAAAAAAAAAAAAAAAAAAAD8PLXpedfqLtoyawAAAAAAAAAAAAMT2ZKTdV6i830BBWeHxdqAr1vgdSWS45/r52v3AAAAAAAAAAAAAAAAAAAAAAAAAAB8oAfrv6kMI246tbX6Y87f2OdAAAAAAAAAAAA6veeZ/RwXGmzccewAAUXT8PFz8y45/r52v3AAAAAAAAAAAAAAAAAAAAAAAAAAKHp+FjZ+cB2469Dy/oArFlfnrfivtF23Y9f6AAAAAAAAAAAfhhu3HR7qvRfn7bBCwAAUXT8PFz8y45/r52v3AAAAAAAAAAAAAAAAAAAAAAAAAAM01/m3x2IAv2X7uQj6AyvTmyXVmuVVuv5NU7CYAAAAAAAAAEBOGP68tQtq2PJq0vPoAAAoun4eLn5lxz/XztfuAAAAAAAAAAAAAAAAAAAAAAAAAAZpr/ADb47G55/sZKHoDl5dyLAM7voyDXm6nYycZd7kgAAAAAAAAOh2MbKPf5LY8mq+UXAAACi6fh4ufmXHP9fO1+4AAAAAAAAAAAAAAAAAAAAAAAAABmmv8ANvjsb3m+4k4emAAB1u8pN1NdshwuAAAAAAAAAcztlrsutNvPzoAAAFF0/Dxc/MuOf6+dr9wAAAAAAAAAAAAAAAAAAAAAAAAADNNf5t8dje833EnD0wAAAAAAAAAAAAAAAAAAAKLp+Hi5+Zcc/wBfO1+4AAAAAAAAAAAAAAAAAAAAAAAAABmmv82+Oxveb7iTh6YAAAAAAAAAAAAAAAAAAAFF0/Dxc/MuOf6+dr9wAAAAAAAAAAAAAAAAAAAAAAAAADNNf5t8dje833EnD0wAAAAAAAAAAAAAAAAAAAKLp+Hi5+Zcc/187X7gAAAAAAAAAAAAAAAAAAAAAAAAAGaa/wA2+Oxveb7iTh6YAAAAAAAAAAAAAAAAAAAFF0/Dxc/MuOf6+dr9wAAAAAAAAAAAAAAAAAAAAAAAAADNNf5t8dje833EnD0wAAAAAAAAAAAAAAAAAAAKLp+Hi5+Zcc/187X7gAAAAAAAAAAAAAAAAAAAAAAAAAGaa/zb47G95vuJOHpgAAAAAAAAAAAAAAAAAAAUXT8PFz8y45/r52v3AAAAAAAAAAAAAAAAAAAAAAAAAAM01/m3x2N7zfcScPTAAAAAAAAAAAAAAAAAAAAoun4eLn5lxz/XztfuAAAAAAAAAAAAAAAAAAAAAAAAAAZpr/Nvjsb3m+4k4emAAAAAAAAAAAAAAAAAAABRdPw8XPzLjn+vna/cAAAAAAAAAAAAAAAAAAAAAAAAAAzjX+d/KN3z/aSUPSAAAAAAAAAAAAAAAAAAAApGj4qNn51uo+rm6/bAAAAAAAAAAAAAAAAAAAAAAAAAAAAAAAAAAAAAAAAAAAAAAAAAAAAAAAAAAAAAAAAAAAAAAAAAAAAAAAAAAAAAAAAAAAAAAAAAAAAAAAAAAAAAAAAAAAAAAAAAAAAAAAAAAAAAAAAAAAAAAAAAAAAAAAAAAAAAAAAAAAAAAAAAAAAAAAAAAAAAAAAAAAAAAAAAAAAAAAAAAAAAAAAAAAAAAAAAAAAAAAAA6veQU4R8o8ZyklGU7CfPzoAAAAAAAAAAAAAAAAAEVKMLOHU7z8O3zsvGUxCf6AAAAAAAAAAAAAAAAAAAAAADh7zO76KBfTXLIfLnPzvI7xd5wufbtpqs0Ki6+0XfboAAAAAAAAAAAAAAELOGa6KKPdTGyj+u9nj9Ot18ud7krrTbpWa+wwsAAAAAAAAAAAAAAAAAAAAAq1leH7cfV7zQKL7pTbY659zkgI+Ua3ZCkXU0O6mXjLc8WydhMAAAAAAAAAAAAAfhk2rNl2nPPVz0Gi621WzcJcjo+HIacapbXQL6KxZDR89+xZNPI6AAAAAAAAAAAAAAAAAAAK3ZX573YrzTdsmTV2+dAAAAjZRxTZkrlkPRXn7paMgAAAAAAAAAAAAMd15c7vo2jJrv1FwAAAApltWJbcltqs3PFsAAAAAAAAAAAAAAAAAAAHn3di7PO7zi2AAAAAD4c8778U/Ce2Y9YAAAAAAAAAAAAhpw81+hh3jFrutNwAAAAArNlfnjfi9CYNtprsAAAAAAAAAAAAAAAAAAA8s+l522Y9d6puAAAAAAy/Tnz6+j0j5+8AAAAAAAAAAAAUK+nGNeT1J5vogAAAAADzZ6GDRc9+nZ9AAAAAAAAAAAAAAAAAAAHlf0/O0vNfruXUAAAAABhm3HATh6S8/eAAAAAAAAAAAAM+voxPZk9Jefvm4TAAAAAHQ7HzP6ODVs2nUc2gAAAAAAAAAAAAAAAAAADyv6fnfBtmPVf6LwAAAB+GX6c+Rass5CfpLz94AAAAAAAAAAAAz6+jEtmSdhPe8O2WjIAAAAdDscH3Y6xZXruXVqObQAAAAAAAAAAAAAAAAAAB5X9PzrTVZUra7dVZpebRbqrOV0ADr95TLasy056/ZCy1WdCUfSXn7wAAAAAAAAAAABn19GO68s7CdfnDSc9+gUXzsJgACIlCgX05ppoko96neaTn0ajm0AAAAAAAAAAAAAAAAAAAeV/T87csWuUjLKdOemXVfZPVzk4y5eODqKnGDnD6LzRdq2bRTLas50UekvP3gAAAAAAAAAAADPr6Mj1ZvTfnehneijMtGeEnCQjKdhPvc6On3kJOEXKMrGel579JzX+d/QxXyi7Uc2gAAAAAAAAAAAAAAAAAADyv6fnbFk1aNnvHT7GqW1wE4R0o8XXNzsnHtgrstddnY50ZHqzUm6n0l5+8AAAAAAAAAAAAZ9fRjGzL6h830OfnRBThV7K4acOlLg7fOzEJ2audhrs/T5PMno+fpmfRqObQAAAAAAAAAAAAAAAAAAB5X9Pzu/HvofBukoyAAAAAgpw8878MjGXpLz94AAAAAAAAAAAAz6+jEtmTR89+z5NYAAAAAyjTmyjVm13Lq1HNoAAAAAAAAAAAAAAAAAAA8r+n53Lxy87r2XTfaLvt0AADg7zOr6Mn1Zv0kYy9JefvAAAAAAAAAAAAGfX0Yvsy/XFprs17JpsELAAABCzhkurNSLqubjVM2nUc2gAAAAAAAAAAAAAAAAAADyv6fnbZj116deaaKOw7cabbFXOTjLmd4HImca3ZXULav13Us2j7M7vo9JefvAAAAAAAAAAAAGfX0ZHqzb/h24zry1W2qwwsttVk5XPvc7+nS7yEnCqW11qyFhrnsuTVjOzLfKLtRzaAAAAAAAAAAAAAAAAAAAPK/p+dt2LXeqbul2NFvqqNtUDOEbKPx1y8ScZWCuy4VWXim7sc7l+nPnt9HpLz94AAAAAAAAAAAAz6+jHteb1F5voCu2V0a6qsWVws4dTvPzrtx7MRlZqrLtTdaa7B5t9DBoNF+o5tAAAAAAAAAAAAAAAAAAAHlf0/OttNu9Ytn6AAAAAcbnnffi4e89JefvAAAAAAAAAAAAGfX0Ylsybvi2Xem4AAAAAViyvzzvw65l1ajm0AAAAAAAAAAAAAAAAAAAeV/T87hcvlN2y49Xd5IAAACLlHE9mSo21TkJ+kvP3gAAAAAAAAAAADPr6MS2ZOfndmyatBovAAAAFJupxTZl6XY67l1ajm0AAAAAAAAAAAAAAAAAAAeV/T87Tc2iiX09Hsb9RfdKbbFCchGQ/CNlGtWV0m6qiX0ztc7NXZU7avSXn7wAAAAAAAAAAABn19GRas2k578q1Z5qEtAovttVk5CfPzo4nIWcapbVQL6a5ZDS899Qtqv9F+o5tAAAAAAAAAAAAAAAAAAAHlf0/O3LFruNNuf300DRTWLK/hzkd5+d6/efDnM7a6rNCz33mm7NdGfOdFHpLz94AAAAAAAAAAAAz++jIdWb0953oRMo5roz0e+qJlAdjnf06/efhJRldqbtJz3zsJ+cfQw32i7Uc2gAAAAAAAAAAAAAAAAAADzX6GC903azl0gcHeQk4RsucLnY52TjKbhLkdAxHZkjpR3/AA7QAAAAAAAAAAABVba/Pu7F6W87fLRkBGyjDTh0u8Hb52YhOVjIDp955l9Hz9rx673TcAAAAAAAAAAAAAAAAAABnGijHdeXc8Wu7U3AAAAAZxooxrXl3rDsuVVoAAAAAAAAAAAA/Dzvvw/JveLZIRkAAAAOr3mE7ccTKPpDz93M6AAAAAAAAAAAAAAAAAAAMj1Zsu057zTbpebRaK7P0AA+HKjbXmOnPU7a9hyadKz6AAAAAAAAAAAAABHSjgW7HGSjpua/QaL5OMgAB0exoN9OX6c/M7vmHZNQmAAAAAAAAAAAAAAAAAAAAKpbVlGnPVLau3yVhrnKRlzcdfqKlGvWV8HVzpt1nLpsEJgAAAAAAAAAAAAADiczTTRmmjPGyjMwnOwn3o9/TpS5CThBzj3Od0fPfqObR2OdAAAAAAAAAAAAAAAAAAAAAAi5RqVtUBOEdKPD1z87Jx7YIWW6mzv8kAAAAAAAAAAAAAAAAPkrVldXtrhpQ6Uufh3OdmITs1c7TVZ9ugAAAAAAAAAAAAAAAAAAAAAAAAAAAAAAAAAAAAAAAAAAAAAAAAAAAAAAAAAAAAAAAAAAAAAAAAAAAAAAAAAAAAAAAAAAAAAAAAAAAAAAAAAAAAAAAAAAAAAAAAAAAAAAAAAAAAAAAAAAAAAAAAAAAAAAAAAAAAAAAAf/2gAIAQEAAQUC/wCYFKSknLxbGh+etAauVve9PvPNR27hutajflSJSsYtynQxb91NrCFocT6VNRJL72GQQ+y7jLlMwmLndJFzeIjM4O2Jskmtq21BHtq0GH9oxVCbYbjCwtd4kWxcWUzMZ9JXG+wreJe5blIDjrrx4RrvcYgt+6mXTv8AdPyEpCFOLs1jat6eG7beYmk8y7Hdsl0VbZJGRl6Qve4lGYiQJc5UfaDhkW0reHtoMmJtguMMsNq20tOPcdrKXHG2J33ML0fua6mwgWXbxyybabZRwXbb7E4mttXVbsdlEZjkXSL9ncNsP+K6ejpDyIzEh9yS/YLX+Qlduh3URFdLSqm5+jt1SPFbhYohRLb0O5nPJdrKk13X0ZO3NBiiRua6Ph6VJkhCa1kREXQGdJSHlSX7fNVb5UDcUGZ6KffajNXa+yLiYjQpcs29q3RZW3a6o8jorhtiWh5+NIjKFo3A9BNp1t5v0MZkkr3dlXKQlKlqtW2G0ElKUJ6V1pp5F22xSRloLBdzgPeht0TzjxRtu0Ey11O5bQRpG2rgcuH6Fv0n7q6WmH99P6pREorlE+xnbdk/bXT0IpVKVKNatoNavdXu5mmS0s2ne+D8+Qh78lJH5KSPyUkfkpITc3yNpxLyM7kfHGz/AG+r3hpSG/bEr5HDa/j52f8AofbNl7aT5ImdXux/yT4rXnk4OW1Di/xTY/FNj8U2JDRMvC1/HzapIqSKkjUsdzRPt7jEkrhyWHm5DPUyH24rEl9cqRteJ55/FP8Ali1/HzWXJW85jGc8L2F7t35GEZGR7fvX2SiPXqDMklf7z9+tKVLVZ7eVuhcU/wCWLX8fNVfVwQ3PLHw3FZDUYtV/k24Q7vAndNMvFvgldb9JuOG3rGbHIn/LFr+PmqvqEJllUX7eOPt44ShCOC7bbblHIjPxXA3cJzJfmrqPzV1H5q6j81dR+auo/NXUfmrqPzV1H5q6j81dR+auo/NXUfmrqPzV1H5q6j81dR+auo/NXUfmrqHZ854hGiSZjlp261CPkT/li1/HzVX1CB8TjejsSUSNqQHQvaEgh/IzR/IzR/IzR/IzR/IzR/IzR/IzR/IzR/IzR/IzR/IzR/IzR/IzR/IzR/IzR/IzR/IzR/IzR/IzQjaEgxG2tb2g0y0wjkz/AJYtfx81V9QgfEymf8sWv4+aq+oQPiZTP+WLX8fNVfUIHxMpn/LFr+PmqvqED4mUz/li1/HzVX1CB8TKZ/yxa/j5qr6hA+JlM/5Ytfx81V9QgfEymf8ALFr+PmqvqED4mUz/AJYtfx81U2urxuCCRlFymchZyvG4LYRkx/2G7IjsBy/2hsK3RaiH9VbAndFqUG77aXQ2808WSu3KAwF7ktCB/VWsf1VsCNy2hQautueHfL3XWmETd2MNiTfLnKBmZmEsurH20gKbcRglSkHF3DdIwhbphvhKkrT1826QreUvdklYkTpkrAiMx9vIMfbSAZGWDEuVGOJuuY0IN4gXDLLtemLYmbPlT3GIz8pcTaUhYY25amA3Eis8DsGG8JG2bW8Je1JjQdadYXb7rLty7bdI9za6wzJJXfcyjNSlLOFZrhPEbaLCQzZbWwENobLBSUrJ60Wx8SdpRFibYrjCHYWrcrrBoWh1GUXi5ptkV11x5yz7dcmlHjMRW+TLgxZzd3sT1tEWU9Dft85u4Rer3JeDdWyy7Idte248UuVc9vxZxSor8N7b94OE9lG4Jhy7lt62FPk8xaEuJvNu/GzNqzDam9VdJX2UAz1G37WmFF5l5tiLlFMtBYJhzLbk7xmp7aqUlbObvBKfFZzMrp1W61aWyOlK5HOuyUoue0FH4Mnc9zak9KFc3c09MqZaf2fVbt/XC1zkXCHzJkpuFGdcU87s/wBvJ3PcSpSFWfcLUsuV2F63Gkki0/s+q3b+uFsub9sfg3CLcGuVLmR4TV3u7t0dGz/bydz3GLI7LtpkaTgbhnQRE3JbZIQ426nhdfZYTL3RAYFwvc64Bttx5dws67bDtP7Pqt2/rozZOyLrZZNtWy87HchbsWkRrvbpfHJucCIJu7RIlSJblttUq5OXCOmJM2f7eTue5tf9VcLNCuIm7auEYKSpBoccaNu+XZoJ3RdUj+quYVue6qDt6urwUtSzbbcdVC2vNfEG2Q7cnd/x7T+z6rdv66D81SUqK4bWjvCXap8LBmbMjhvcV3QC3VdB/VXQL3Jd1h64Tn8ItumzTgbUbQG20NIvX7XZ/t5O57m05KVxMH4saST217W6HNnhW0Zo/kriE7RmBvZ6Axtm1MhphiOnDd0lJrtP7Pqt2/rm1m04y6h9rCRZ7bKDu0oSgvZ7xA9pXAfyVxCNoPmGtoxEiPZLXGHbAzJJTn/upmz/AG8nc9yBOdt8mFNjz2OXc7mxbGZEh2U9af2fVbt/XDb17TF5u4r2lSRs/wBvJ3PcOO8liJMkwXbfuiJIJC0OJ43XmmEXDdTSCffekuHHeSxaf2fVbt/XNoU64604w5bL/Kt4hXiBP5My6QYBXPccmaSUqWp9lyO7s/28nc9zbjTb1muW1lpDjTjK48uTFNjdVwbDe72DCd1Wsx/T2nRW6rYkO7vbEjdFzeD0h+QpiM/KXbNrJQe7UkmLaf2fVbt/XQfm3G0xLki4WGdAwjXq5RAzu98gjdsAwW6LUYPc9pIL3bbyD273TEm+3SUO4gWadcDtlli20r1+12f7eTue5tVaVWwSIkaWmTtOI4HtrXNsOWm5NBTD6B43AmNIWG7PdHQxtW4uCLtSC0GWGY6BvBReK0/s+q3b+ujLJuThLslumiRtBYd29dmguBObHidIeNwIgzXA1t+7OiPtF4xEsFsiY3ZZOXPZ/t5O57m37oVvlEevMccQ0i8XE7lMtP7Pqt2/rht66JmRuZeroi2xRs/28nc9wWfcLkEo0qPLb5MyfEgIu97fuZi0/s+q3b+uDTzjDlr3KxJLlXPcUWEUmS/MeGz/AG8nc9y2WePc7POtsu3rZfejLi7slNhjctqeDc2G9jroHbhBZEjdFsaEvdU14OOOOrt1nmXJV+tsa2wbT+z6rdv66F/sy77Z1NaFtqhXefAEbdzRhm+Wp8IeadxW422Hr1a2BJ3bHSJt7uM4ERqO07ZW4d4SlFz2f7eTue5tf9U4226ibtWK6JO37pGCkqQYStaR9zIBqUrBDbjqou3LnIELbEGMCIklu/49p/Z9Vu39bC/yYJluhz0y9pPJEi3TouJPvJBvvqxjwZkoRNpynBBtMG34Xr9rs/2snusc41w2nOSXA4y08TljtLoPbFpMfytr1Ttm0kG7LamghtDZY7onJkTNuRzfuvVbhjnItRGZHbpqJ8TF2BCfC9u2hYPa1rMFta1kEbctCQ1boDHBKkNxGHnVPvbWjm1bsn3PazkNtrW0uz35meXLvW4UMJ/0z2/bDgReqMiMrzbVW2Xabq7a3ok2POa5UiQzFavN5cublugOXGU02hlvKL1txST7CBuWZEKJf7ZKBGRlwqUlBS9x22MLhuCbPCUqWqx7e+3PrJsJiexcrTJtjkeVIiOQd2JEa4QpZcUiZFilN3YygS50qc5At0m4u263MW1jKrjYYVwE3b9xh4MypMcN7ju7YTu24kP66aFbsuRh3cN2dDr7z5kRqOFtu4Shb7RDtxdc42h1Fw2ohQlQJkMwzdblHCN0XVALd04Hu6cF7puig9eLm+DMzOPEky1QNqGGWGYzeWybdBlh7acBYc2g+QVtS5kP5e6hO1LkYb2e6GNq25sR4cWIWRGRKKRYLXJDu0GTC9oziB7WuhAtrXUwjaU8w1tBsR9vWqOEIQ2n/kP/2gAIAQIAAQUC/wCYaTFJjT1ASBpwGQNHpjTgIgRaYGsVmKzHkBKLA06gy9JknUEguCkgaAktMFK14krwUWvpJKMDMeQeQx5ASixWfIQeCy9IITgpfElYrLlEYX29IKPTokdldvRyO4Uf+9Cjsrt6MJAoIadKZag0ei0p0w1FZA19GS8VI9EpTpgpfUJXgpOvodBYLV1SFYLL0Mnso+sIwvt6Gc6xvg0FIpFIpFOfudY3wFxKz5zrGweNQqFQqBYKz1B/4fWrPjTgrNiLgPFJ6YLT1SU6YKPXjTgrOzxQrBSdQaemJISnTBauQnBWcGNRrwpXjoKSFJCkhSQpIUkKSFJCkhSQpIUkKSFJCkhSQpIUkKSGmGoUvkpwVnCuTWPIPIPIPIPIPIPIPIPIPIPIPIPIPIPIPIPIPIPIPIPIKz5acFZwrKk4KzhWVJwVnCsqTgrOFZUnBWcKypOCs4VlScFZwrKk4KzhWVJwVnB5UWCv+xaTFBigxQYpPJ9BQYoMUGKDFJ5iTYpLkGggaMhItQTY049AaAadMsSnUEWmBuCsxrwaiswS8DTqDLTrkowNWg8gqPhqMeQEosFIypJa4KXyyMJVqDIGWnWITga+WSwRhacpQX+LPTnJPULLqyLBZ81J6YKL/coX35rYV26pvvz09nMpcLnIIK7dU33BlpzSLBzKlI5iUYK7dU33BlqDLTlkQSnTBzKav9BoBoPkEgEnTAlahXbqm+4JWuBtik+PQE2NAatAQcylfclaAlljSQoIUEKCFJYmsGeobCu3VN9zwJYJWGgoIUEKCFBDTAzBrwT2cylzHUVmPIPIPIQ8g8grPgbCu3VN9+Cox5B5B5CHkIeQeQVHwEHMpMtQZacwi1wV26pvuFp5qE4OZUZA0cokYq7dU33wNOoNOnJItQSMXMpX3JeGgoIeMUGKDFBjxigsTWGwrt1TfcwStAStcKSHjHjFBigx4x4xSWBq0Bq1CezmUr7jUE4KyFRcFRCsga8Wwrt1TffElGPIKyGuOoqIeQGo8U9nMpWWvOSWgV26pvuFlzUlrg5lSkDTlEWoSnTBXbqm++Bo5ZIxcyk1aGR64G2KDGnBoKDBIwNWgSeoV26pvuYSvA06jxik+Gkx4wSSwUsJ7OZSvuCWKi5BrIGvBsK7dU33PAj0BODXj1BuA1a4J7OZQXZwuGoxWYrMVmKj4UEF9uqR3BlpwaisxWYrMVmNeAsF98nQeCk6cxKMFnr1iT1Ck6gy5iU6Az0ypK8DQDSfIJBgkaYKX1pHoCVqNAbY049ATYIgZ6Az1yslaAlFhoKCHjIeMeMhQWJrBq1yAlgjwpIUEPGPGKCFJYag3Mv1HkHkFZCsh5CHkFZjXJKjHkHkFZCsh5B5BWf/ACL/AP/aAAgBAwABBQL/AJhqIVENfUBr4dQS/TGvAYM9cCQKCFBCgGnAlaelDUDXwVAlhR4JTxGnBJ6eklKwIhQKBQDTiguQosEH6QWeCU8RpFB8owjv6QSWvRL7l39HLwSX+dCvunv6MNYrPpiMEr0WatcNBQYJHRmjEleiVHrgSOoNGCVeh1ngguqWnBB+hldyLrDIJ7+hkdYvgdlrSr71wfeuD71wfeuBM5YbWSyz1HWOcD/ucMD6M9R1i+BcIlH+PIfjyH48g83QsQPozbUhqQ1Ia4rIF1qC45nuiB9GayHjWrFldC8FFrglXVKVgktOOZ7ogfRmp9+CMupvBScCVoCPpjUDVrglPIme6IH0ZqfcRW0m34UDwoCUkXAaMdRUYqMVGKjFRioxUYqMVGKjFRioxUYqMVGKjFRioxUY1w0BJ5Mz3RA+jNT7iH7XIoFAoFAoFAoFAoFAoFAoFAoFAoFAoFAoFAo5cz3RA+jNT7iH7WUzPdED6M1PuIftZTM90QPozU+4h+1lMz3RA+jNT7iH7WUzPdED6M1PuIftZTM90QPozU+4h+1lMz3RA+jNT7iH7WUzPdED6M1PuIftZTM90QPozU0GKDET28plpPyUGIJaI/7EqIVkKyFZCosn1FZCshWQrIa5iaxUfIqMEvITMGsa8eoJYJWWGrQGeFApIacGgoIGjAj0BHr1xrwJIoFJcNJCgGnAl5Uo9MEp5ZkDTpgR69YtWBI5ZpwSrKVH/qS5yi0CD6s8ElzVFrgk/wDMoR25qwnv1S+3PPujKUHzlmC79UvAj5p4IypKuYpWBd+qXgR6Aj15eoM9cEZTT/gJQrLkGsGrXA06Au/VLwNOmBLGvHqDXgRagwjKUdjTqDRjUYrMVmKzFR4kgEWgWC79UsFgaAZYaioxWYrMVGNcNASMFd0ZSjgoIUCgUCgUCguBYLv1S+GkhQKBQKBQKBSXAYRlJGCPmGemBd+qXglXNUrBGVEYJfKNeJd+qXiStASuSZg1YoylPY0YaisVishWQrIVis8SQFgu/VLBAy1BpwqMVisVkKyFYrFR4EkEnQK7oylHYaCgUGND4KTFAoxWC79UvgNIoFJjTHQUmKASSxPujKUnzlHqC79UvBJ81R6YIypKuWZg1a4F36peJL5ZqxRlJJ1Iy0wrFZDXg1FZA14EnUKLQF36pYIGjAjFYqLhqIVg1YEgK7oylHYGgUnyKTBIwWC79UsFgZA0DTj0BIBFgrujKDCD4aSFBCghQQpLhWYT36pXYEfBoKSFBCghSQ04kZQssEq5ilYJLrFFoCPQEfMUrUEWuVKTgSxUXINRA1YJT1pkDLTAljXj1BrBmCLUEWmVmnUGnGoxWKxWKjxJAJOmQGgaYaisxWKxWYqPDQEjL9BQKBQYoMUGKBQNMkpIUCgUGKDFAoFJf8i//9oACAECAgY/AvkgH//aAAgBAwIGPwL1QbWnvm66ef7qvp7ffOc5znNovqJxZb60JiHFm0HcWYW6WcLxnC8Z2DuLMIU4swhTizCFOLMIU4swhTizCFOLMIU4swhTizCFOLMIU4v3Df8A/9oACAEBAQY/Av8AjBnKISkbZjStbe8c7FOPqk8CskSatTSjezhPg/L5dfWG201qMFv7enNT75de8MsZ1odU6fOM/wAHy76kjoVp4DRAb+4I6tXvk83fFYgLbUFIVUoUj8rTUZC+YkbS16aY7N1C9Ug3V2h8yQnhJvCM9w5rQ7traH6xIUk1CAu0EWZs9Klfo5Y7QuOndMhxR3Khu56ssfLvrbN5UljkgrLfWtD+xunhFdzR07MeeycYvGE2izqzm1cW4fymUE9baB/UjawnaghtQs7d5FfpHkjOdWpxV9RmeO72VoVm9BWkngMBu3J6lXvU8zf2xHVtq+VZob847askJbQM5ajJKRfgPPgLtp29pG4Mv4i9Z5M2r1VYcsKZeSUOIMlJMaR+VcodTe87egEUg1H8oqsn29ckihx8be4nLczbK0XL6vJGE1RO1WkJ81AnxmWKKXX54U/xjsLSpOuArFKCst9a0PLbp4q7p+4uinmscquTwBtbSfmWBM+cjb4Lhs6z2lmoGoauCr8of/nsHtXB2yhtJO1v3E2q2zTZvIbqK8ggNtJCG01JFA/Cp6zyZtfqqw5Y6tbQaRtuFQI4q4bYb5jaQkb3gbRZxzUqmjVVSOKEt7T6VIPtcn5Pcfc5jaSo70OWh0zW4qZjPdHyzFK/OO0mJCrxHC0mfHFjP/tSOEy/J4aFb6wDgTTkuMplpuDrF4Vfp4k4PdpSninyxZAPeA+jT+TShj5l0dHmelkjQWlhN5A5TOB/oeW7KrPUTKEo6RA4YAFQq8RJvQ7aF851RUd+EWpCAtSJ0K3RKAhZ/wA7x8ldRwK/JSn31ZjaKzBbbm1ZNpvbVrZLkrMytzdAo4ao0uqb3FK/iDCLRbHEr6s5yW0TlMXyZeJrXYQHWFGaUTAUNymM20NKaV5wlcSzaZu2T1kYNzchLrSgttYmlQ/I5UaAKzGagysjZ7NN/wA4wEpGcpVAAgP/AHEZ7m0x5I1r8BKAEpFSRQPFi28gOINaVCYhT/22ZApVZ6/RyRI1x1Dx+TdNPmKv5fyOmyNntLRz9QZbg+4PjtnB2IPkpv4T40fuVnTpD6hI2x0stzqHD21m0cKNrJ+Rnz5LZ6tP7KMc4ZYPdzznNVNJ4avGylQmk0EQ9ZvJSrQ1TSOKGhPQe7NX7quOX5FKjUBOFLVWozO/Fqf6KUoH7jPk8cs7/vEFPoH/AOUIdFaFBQ3oncWhMpJMhRFY4IrHBFY4IrHBGkAoXqoDiKjs49qKxXLXfzkcvjljG32n/W4jALjusfxK1ziGzkjVDjJrbUUneMoes5/uRMYUfoT44hgf0t04VU4pQyx7xaU8JuqXnkZxnHeGO8Md4YU0DMJlTvXFa5xDZesRWIrEV3S6B2doGeMNRyw1aUc5pU5XxtjfEIfaM23BNJ8actDpk22JmHLQ5z3VFRj/AEEaFmE/3KoHL+NzexC4rXOIbLKp7MHRT+BC9oGnBdUlA7dvSZw3t+JGgisR/ktJ+VWdFXQVkMTFXjBUoyArMf5rOflGzX01X8F6AhImpRkBumEMnvlaTx845Pxub2IXFa5xDZY4fwoO2NE711X3CyJprtDY9octwNL7ay9A1p1TyQOpeGef6laKuDJ4seteBcH9SNJX6b8FpPY2X3YrOsbgt1rT2x7ls+Tund8A5vYhcVrnENljhuIUptJNNJAvx3SPREd0j0REkJCRuUfgVaLFJp80qb8hWQx1VobU2u8bkmrS6hN4LMo+rcj6tyPq3I+rcj6tyPq3I+rcj6tyPq3I+rcj6tyPq3I+rcj6tyPq3I+rcj6tyPq3I+rciTtpdWLxWZXOrszZcVuVDCdqA/apO2oVDyE5T4FzexC4rXOIbLHDcb38Z8B1b7aXEXlCcTYUtg3ucnjp447O0oUPOBTljv2vWyR37XrZI79r1skd+162SO/a9bJHftetkjv2vWyR37XrZI79r1skd+162SO/a9bJHftetkjv2vWyR37XrZI79r1skd+162SO/a9bJHftetkjv2vWyR2lqQkeakqyRN4rtCrxOangGWA2yhLaB5KRIeCc3sQuK1ziGyxw3G9/GdinN7ELitc4hsscNxvfxnYpzexC4rXOIbLHDcb38Z2Kc3sQuK1ziGyxw3G9/GdinN7ELitc4hsscNxvfxnYpzexC4rXOIbLHDcb38Z2Kc3sQuK1ziGyxw3G9/GdinN7ELitc4hsscNxvfxnYpzexC4rXOIbLHRPBHNPBDYNBpxnYpwhJIoxCOaeCFTEtPkH/MSb7qGtdQTjim0g6oUrEIoLisCcsVO+iMsUqcThTknGjakjWmn2pRnMuJcTfSQcWw3a2ltJvZwnwRQ8V6qFcoj+0/t/WKnfRGWKXijChXJOOztTU7xVI8BijY8uPLDbYrUqgQU2Jvrle8Vop4KzGlaChPRb0BxUxM0m/c0G1KwAmO5X6JjTQpOESuZyCUqviiB23XI6Lulx18cBFqSbOvpc5HDtQFoUFINShSNgPmHNPaaFKzvZYKbG2GU9NWkrJHzD63NwmjgquSFJihlfomO5X6JiREjcnZ3lt6pkIAtSEvpv81XFRxRJlzNd90uhX672xmb3lqVzWuU3o6y0uZ3RT5IwCOrs7anF3kwFWx0NDoJ0lZIpaLyuk4Z8QkOKOxYbb1Ugfg7WztrwpEaCVMKvoPIqcFVlWm0J6PMVk44LbyFNrFaVCRibKpt+UyrmnJGe1ouJ7xo1pyjx0qUZAVmFWf7aZCpVo/jlgqUSpRrJrgKZak0f7V6Kf13ona31OHoo0RymNCyoO6vT9qcSbSEi8BK7JQCheMdpZW8KRmH1ZROzOraVeVpp5DBUpvrGh/Y3pDKImK4DFvJdZ2nfLThviA42oKQqlKhUdic8UvuUMp3b+AQp11RW4szUowm02ubdlNKU+UvII6qzthtA2h/5T4Lq7S2FjaPlDAY61Ha2Q+Xtp1ssJtDCs1xPHuGEWluidC09FW2PHFfb7Orskd+oeUro4BCWWUlbizJKRAdtgD9o6PkJy+DLjQDFq6Y5p1hCmLQjMWOAi+NyBZX1fKOn0FX8F/Yl0T7Njs0ftr44LrwnZmKVDpK2h4UoWM5ChJSTehTSe5VpNHcvb0Gyk9naBQPPTTin42/aBz0pkjWVQIma4TaHE/NPiZPRSahl8KQB8y3SyrdvYDEjXDalmbjXZrOrVxS2IcUayoz4YmK1OqzuIeGsq/KClDelFkl71PH42kdJ5I4lGGUL5ilpCsBPh7WlFXWq44tSdoLSeEfpsQvWMOWBwy6w57WttjwwYbM27NNM/PNeSLH8VOPxtr46fYVcbfB06nReWK/CuWl3moFV87Q34W8vnuKKlYTTFr1kcuxC9YwFoMlJMwRfhNnthDdqqCqkryHwczVCrL9vVnLNC3xUNXLcsfxU4/G2vjp9hVzrG6W1d61tKGWOss659JB5ycI8GXrSsITtXzgG3HQsyO7a5Tu3LXrI5diF6xhNtsuk6FKC2r4HRgpUJKFYMBCj17A8hdYwKiTijZ13nKuGqM5tYWnpJMx+LOecS2m+ogY4IYnaXNyhPCeSCla+rY90igb9+A20krcVUkUmGXX1fMOqkUCpIljix/FTj8ba+On2FQy0rmrWlJwExnd5ZjzXhiVeMB1hZbcFSk0QEW9rPHvW6DviqOxtCc7oK0VcB/H29oQk9GtXAKYKLA1/9rn8RHW2lwuLvnkvRJoZrQ57x5oymHrMgkpaVIExa9ZHLsQvWMJ+IqJupzHtp5NCt+/BU0P9Ld9HO9HJBSsFKhWDQYzmlqQq+kyjRtSzrSX7U4pU2rCnJKKmvROWKFoRgQOWcadrX+3Q9mUZy1FSr5pjMaQVrNSUiZgKtR/zN3q18G1vxm2dGkec4aVHfiza5xRY/ipx+NtfHT7Cos3xUe1BSoZyTWDVBcsSuoc92aUZRB69lQQP7BpJ4Rc7C0ONi8FGXBHf5w85KTyR/Uf2/rFTXonLFD4RqpTkjtrS4sXs4y4LnyzKljpVJ4TRAc+4L6xXuUUJ3zWYDbSQhCeakUCLX8SLXrI5diF6xhyzeW0vOl5qv1uytDKHdYTiaAtnUVR6047K17ykcoMaD7Jw5w5DHesekv8AjGk+0MGceQR2trJ3EoljJiakKePnqySjNYbS2m8kAXbPZRzkTWvfoEWP4qcfjbXx0+wqEOJrQoKG9CHmzNDiQpJw3Zu2ZGd0k6B9WUdk843hkockdnakqwpKeUxQ8xLCr+MUusSwq/jHaWpCcCSrJHbPuOask5YmizJUrpL0/aiQquFSjJIpJh+0CpxZKcG1Fr1kcuxC9Ywm0tbVCk9JO2ID9nVMeUnbSbx8J1jmk6e7a21HJC7Q8c5xwzJix/FTj8ba+On2FXP8VrVKznunOiTtHcPhVfb7Gqc6LQ4PZHLctesjl2IXrGEWkoPULJCV7UxtR11mWUK27xwiAi2fLvdKtByb8BbagpBqUKR4DrHlpbQPKUZCC39vT1q/fKoSMArMF59ZccVWowm0qQQys5qFXzuRY/ipx+NtfHT7CoQ0nnLISnCYU08kocTQpJgNK7aze7NY1TADTua6f6l6Kv13vA/MOjP92KV8EFmz9hZzX01YTtQEIBUpVASK4Uy6JOI5wi16yOXYhesY6p1IW2pa85Jqgu/bjnJ9wo0jAdvfgtuoKFitKhIxnWZ5TR280xJ5Lb4vkZquKjijtrMtOqQrHmxT1qcKchMT6xeDMMUB1WBI5SI7GyqVrKlinEm8xgeaJnhVOM99xTir6jOOrs7anF3hAe+4nOO0wmr9x24sqUiSQsgAYIsfxU4/G2vjp9hUWb4qPaiTyZOjmPJ5wyiCrN65j3qOUVi5Ju0KKOgvTHHVvR8xZkL3UEpx50doy6g7maRjjnLH7Y56z+wxoNPKOBIGOPl7KlO6tWdxCUSU+UI6LehipiZrgFpvNZ98uhP670Zye0tG28rkvRa/iRa9ZHLsQvWMZorQ4oHHczLS0l1O7yHaidldUyeidNOXjjs8x4eaqR9aUadkd3klWKNJpacKTHMVwRoMrVgSTGjZHP3DN9qUdsW2RunOPFRxwDaFqtCr3MTwCnjjq2G0tovJErllR5RUo8A/WLH8VOPxtr46fYVDLhqQ4lR3jdJcZCXD/YjROQ78TsloB81wS4xkjuOsF9BB/WNOyupwoVFKFcEcxXBGhZnVYEKj6coF9ZCf1idqtCUDotjO4zKAoNda4PLc0uKriu2tSautI4KItesjl2IXrGCh4ysz9Cz0TtGJirwinHFBKEialGFPDuU6LI80ZYsfxU4/G2vjp9hVwWZw/NMCR85IqOXwpkfmXKGU/wDbeuWvWRy7EL1jcFntM3bL5PSRgviOtszgcRuct7wWfaXAnop8o4BHVp7KyipvbO6q5Y/ipx+NtfHT7CriXmVFDiKUqEBq2yZf6fkKyeDLbBD9pvDmpwnkhT9oXnuK28ly16yOXYhesYTndnaErVmPDEb4jMtCJDyXBSk4DHWMOKbWNtJlGba2kvjpDQVkjSWpk3lp5RMR2VoaXgULszVHa2lpO5nCfBHZlb6vNEh60oKbMlNnRf5y+E0cUFx1RWs1qUZmOzTmM+U8rm/rFmbYE1FZ6xw85VEWP4qcfjbXx0+wqLMDV1qPahVo+3DdVZ/45IKHElC01pNBiTDp6v3StJP6b0StbBSek3SOAxo2pKTeXoe1KOzcSvVIN2bi0owmUadqQdxGn7M4lZWVOHpL0RymClx3MaP9TeiMp34kkTJqEB/7iMxvaY8o616LShACUpXIJFUWvWRy7EL1jCfiKgtupC0GtKhMQV2NZYX0DpIyiO561PSa0uKvijNWClV40XNFRGCO+X6RjSJNzNaQparyRMxNTYYRfco4q4C7R8y551CPRywEpEkioCLNrnFFj+KnH423uPp9lUWY/wDtR7VyVpaCjtLqUN+CqxPBxPQXQrhqjt7OtA6Upp4RRd0XFDfMaTqzvm78uwtzdAo4aoCrW4llPRTpKyR2DfabbqqVf+YLlr+JFr1kcuxFpaPTJTqqpHFDtgWZFR6xr/sPwSdbS4LygDjjSsiBqzR7Mo7tYwLMf24M79IpbUrCs8ko0bI3+7T9qcZraQhN4CX4E2ZszRZphR8818ENHyWZuK3quPxt7NpU3Jwftr4pxMViqG7QmsiTgvLFY/B21nbWb5SJ8MfT5uBShyxU4P3R/Yf3R3GdhUrLE2rK0k380T4fwOWh0yQ2JnJvw48vnOKKjhJnHWqrfWVDVFGxAtzIm6yJOi+i/vQlxtRStJmlQvwGX5NWy9tL1cnhFWWwqz3zQp0VIwXzF8mM90StL9KxeG0PGyDSDWIKAPl3KWVbl7CIzhpsL71u/ujdgPWZecnbG2MI8GXrQsNtjbMZiJosiDoI2yb5hFnbqrcX0U7ZhDTYkhACUjcGxKrX9vTNBpcYFY1ckbsBt/5lkdLnjfywB13VLPkO6PHVxxMUi/8AizlqCUismgQQhf8Aoc6LdXpVQWweoYP9aNvCduAhAKlGgAVwm2W4duKW2ujund8dVZ7QmaTUdsG+Ik4M5k8x4VHIY62zuFtd8ct+Ai3tSPvW+VMfLvoWejPS4K/xztDyG9wmngrgpsLfWK94uhPBWeKOstLhWdobQwCOrs6aPLcPNThjqmqVHvHNtR2LLkuptB/tRt6w24JDfXtdNuniruTYeW1qqIjv88eclJ/WNJtlW8r+Udw162WNFDKf2nlVH1GYLyAB+sZzzinFX1EnHGakTJqAgKdH+Zq+vnejlibKc57beVSr9PHy26kLQqtJpEFz7evMPuV1bxriVpZU353k8NVzsrU4ANonOHAZxpKbc1k/xlFLLPrZYoYZn+7LGj1beqn+U47S1OSvJOZ7MomaTfjMszSnDuCjfO1Ac+4Lo9yjlVkgNMIDbYqSNjvmGELPSlJXCKYmy440b3OHHTxx2VqQrWSU4pxQWVYFHlEc1HpRStlP7j/GO1tSU6qZ4yIm6XHjeJzRxU8cSs7KG90Cnhr2DzVCYNYMTLAbV0m9HiFHFHYWpSdxaQrFmx2bzKsOcOQx/Wf3RU2P3RpvMp31Hkjt7UTuITLjM4n1PWqvuHO4quKAhCQlIqSKB/xE/9oACAEBAwE/If8AzAjywag9WJJdMk0M1IIiDit+RH6fH5Vto/3pNiXVW+q6H5dicqW2U7GD0+BEq/N+29kXvLTVfe+hfpDeNbRDon0tVIeUoiqhTI/2T7qV5PGkv/4AbrFFptbp/wArdgIFFBqqzViMAsPwr1D0h7mWn0gj7wShFVS3vqoQu1x9jf3Ybks2EOegOuldeBUS3WafafzPc81bhsn0mtusbL8XZnpFVlg8eupfonVPG/NbhjUjxfG7+5r0gJ10LFPRr7sVLTtGMPUvHR3iYwtQVaAQzi252e7z/DT4g1z7Cn6TC8nrc3BJAGCblT2QHP3ERMFYYR+kdYsMut12P8dVVt1XLNCGaLTuND8wAz3fMU9VuQ/5wZvtj3z+GDgzMc66D+K46j6U3atP4nr8jbpByWoebkfjg1qKc5/qnsD6Q0Q7eZjd+/p34EEjXXFzXPusI/lHA9D4ThyLNH6TC8nrcJ2hp1OYJfw/EEKueNCrern5GdGEBpoeh+iqLcfmgKfx+j/ZGRF13ZYgZ++x0DQhNaqPZf2Vb07wAAUNAPA2gNW91j9E1sq/vTr9Hoqoq9b7nBoOXvemy+1DwQh6n79jKMeh1fY+jFAVaDLGb2k10H8r9DGEZ7e/dfiowu54uVunpHOyb6qgJ0FDoeBNXAV9JjIO5XuvSUAMF1ZlJhpj+Gw2t+D819FH5Fb/AKOa7EU7Zj6iM+zvnhycV0nu9HqywWebX2MqB1bFrCDQOtV4N4sKFXXYENqZydIJbtej6cFiwzcOtz1PSZExAEfodyQVpoAbx45IxXxRzduR6xB6ga1XAEudGpv5Rl0x3mnlMoB0Dw2FBQfgZQLUDq9eXu9OURIUNEcjBt+hbc29P+tpnU+hqwltjJmPXp2vhdrvCy/o+3fxVerXN6Hqf258GNyizlM/SvZ9DKG36b1PzdCH3+hj7MwAACgweKHoVVqI6Ix9S1zd/wCdaxUqWn9u36FBmyXY1muQzvK2GgauO8v18YQxSv1bI90XB3BABsdR4Ipe9AfCpSlFXetLfmfy2Y8nzwqAWtR6+CK+o7V4y9CzQ9Mv44aQfuOH27n8S9CjzwAHUWiTdd+5t/CKhVPVbH5HjBSWF2vaCnFv42OLNciKN5/gk/wSf4JGUZh1D/PnNj/Sn+lP9KD6AXilOCXauj+fdMR4+4MhKVU9I8+ph8VeCN+2x1XQmNYDleA6BoR1ta13h/FvTz+6wDXEGxRv3fg1Vqh3tH246wmvcxn09O9RECik0RIW+8u9v+7lnnAAlrUTCeIOge00AMqwxVqHGj9H9uVIKMHqugB3lCGC77HYaef3WPcvhvVs/V/4p42g9WSel9t+fAAde9X3GWnaFUnSXpbP5eG6QSFvKj9hKE6ua+S7nbHfhoPBeUXa5zBt3x5/dY9y4Mq+tJz3Sfdn8T7s/iGqtqhP0+DOCQ0Tmc78RMN7NX1HCdThUqME/hdT/cP6n+4f1P8AcP6n+4f1P9w/qf7h/U/3D+p/uH9T/cP6n+4f1P8AcP6n+4f1P9w/qf7h/U/3D+p/uH9T/cP6n+4f1P8AcP6lqxy7+F1wNb209RNB3Y22qFl6X+R9Of0DdY9y+VcwUtoPS8MaW7a1eki3fi3t4TZZZZZZZZZZZZZZZZZZY53p+wZXDD/EL+YxYyB7H0FdY9y+pLrrHuX1JddY9y+pLrrHuX1JddY9y+pLrrHuX1JddY9y+pLrrHuX1JddY6k3dP8ATQiEMXTyqYgMwWX+mg8ytolf+xA2jc/2AliP8vfEPefai9xw++9DwqBZ5f1o6VE7+beS41Zdh3Nz8VvtNIUNv2QIg0HWD/MF+HrKjX2UwijFLBG/CwQCrHCeX5TkoD1Ykv1H0f6UeRv/AFl6nqxEqmVq8ArC5/pJ9+/xPfwv24HQjDKPUiI0G1/TJhJ6bh7C/UesPEttEOYmj5BfTK3/AMMd6Ed2O/l6x94uozvfxOj8cEKFMBrAgpHCf0Sn7X2i9rkOnDsoqp3MPrEt2Z/fqxWXDlemY9R8s0PqWbg5uz3feW5Uw6W+gfuFWvauursHVgKOz+OXQelw4pG5gRIUGP4c+ANL7d7+auCq43dX6D8VCwRu/SqoygSD8DB1tb1npbupLo6LfT+zZPGnQPaaAGVZQEepf4n+OcQudutLurLAP+QXPoMKN4TOzbZ7QktjYtfOHQlyHtx6M4BPeCOqc+5LIA7NVfwH5YLu8sA6mnqFQVCUNRJjFHL9i698QxT2Ng7j5SwqvN/JfZtMiYgKsQDRFoXPqc99ucDbLnPVcrq/KadmPqhqRJVVRvnAD9NO0bUn0G4bjPWxChk/Z08ZVWakYP8AR17TcEkBZk2G2rdBz6v4mND5T7hrTq9D9mveOm/phN1zl2CgLubOp/l38oAlkq21a/W806JThPZ0t/G8ACjQMHzAvpAWKyM1FJ3ufd1Wk1Px6A0fWj8eLV/XqG9tbiJS1qrlZpwC7OoHlpr1dvmmcod/1fw+8RIUNEcjLPCecaW9XbyhQbTXVUR54XUP0B85FbSz1Bf0RVVNHoqfZ8W3Os+5yntgFEfb5+/JKNlWn5YzZg7oPlD7xzmZoN3BXeQE7PzqnyQYU/Wj8vG7aRREaTDBbaefB+2Tp81YKvG7YOq0j62hdW3uz7Zy8o/eOccQZoyDUSHRVL/415fjl8tQKUNVZrbhjjc5n2bdPHbadgcEdB+hsw0ZBtk5fyY+WHE4OXlkU3Yr7vK9v3PtnLyj945x+lg8p0erpvH4No1ImyMKwkGaPyHrZBhJ2vab/KoQd8A/MfF0B939IXTmN/1/iM1Fj/ss+rTpHP5R7HsTXmOmSWq97ZrTxu2mznTnNMaiJC7SY6H/AAdplgyLf5D6C00PVdXonaFmpbn6m/T4z2o5L+79kCtR+2k/b6Rk37ugchgdCaq60v2nIm7aZTQas+2cvKP3jnPtPOEulfsgPf0lCY42fXL3TQKgKh6jOvQo/wAkNAQ+4hT2wf8AlxfeqQCBHNz9MN1LLq/LBeZgN6GsdE5rWOzT1PSaRZV+e+ToUeO/20/Z+SA3DRrQ7I5mq0a6ivT/AKnSM/bBbA9eFaANs9ypSmm292o+8AUic137CLCA9T+aMQHL9tTBaS7/AN1XtwICzlp71e6c6EsfYfQqBpKh0HQJ75+ifbOXlH7xzjHdYOYc+geNOhtSjsup6RhV8rPwEhn719kg76D/AEOFpX69/YgSkvcXu/QlAH7tX4r/ACTpi5vtxZew6LSPs+N20++FA7J2f2AL4tNoyH5XU9ZfrTtTey959k2co29ZzJ/yhdo9yP8AxnqxfzDOudMB+9/eUgpzVfPIPQgAAoaAcD4BVYAywfcn1/hU+2cvKP3jnNb11vCZPvMvUeT0js/MWrgm/wDIN2f1O0QcgNDx22mpuG0w78lrez0wIgjY4fmZaPgqN7e/6c+H2zl5R+8c5vwCXdLk94I2J5HlgSAFtZK759rrNQArRDomnyEmWQPzM2sTQ90UnejvMrujr2OQciPAanQIt6g5+N2074PGhbRHivR0jC9D4XR9js6Q4LuJ6GPUfkuKYxr3ox60QxXTUdDoYPI/LH0lSWl2AzLV2q+6autOU+2cvKP3jnKM1B2iyL71tDvenudWZsXoHoy3ibgHuYfWV+4HuCsK7q80BvsRgaFh73+vfh15DzmyftH7ywVPbfsaBOs/8/S8Qq97N11XAdWAKPVWl+xRp1YX4o1AGkAx43bT9n5JpIWtB0P4GJaEwK0fc7deBQYdh5Gt9QlWcw9iw/GkfpX2lVd/NvT8XFKOrP5KhPrL8ld9paHIHew/eGL10n51PViqUtaqyyBZwXTeA4Lyia9jt9+s98/RPtnLyj945ywmlPeh7PDlEitpfqehl43Y9kuh+Uba7aj8X8kstGZSPzcilMYoGO5P9xPuirkSsr3hpwpHdZ7DeFG0zCIQC2g9s8B39DnQDxrbT7a8grM6nDemTL82vYMJYXZy9+4vcX/l7PZPztCPzUWUJMip/uIhXex+iVNf5Al/SLm5iF7E/DGe5x/oYxocHyuqed/6T7Zy8o/eOc0ogTgfb1p/5AAlrUTCfMSs5CgDdlhAN3NmXqtfbx22nTdsnOiHnRp+W/zUAk3ejuun7RVVW1yz7Zy8o/eOfANw6Ixd34Pxyg5OyrUeQyuifKxnt5ffH9Skiu79Uwm70we/j9tLcWwSMafDMfW399Ou0EQRscPytacy+26Wa5PaOEylgNgbBy4fbOXlH7xzi/oSS2rwQsbV+wzs6w7vmi7PM6MMAH+8dF+gSsHe6+25sOu82e/i7mdTggWUMrMuvN+8uAptC+zq/oGForb+op6RqIfcTusAZnRUO3P0PWpa8dlBv5BseN20kEWjR7IhMLeGevHq9OUR4FFQeo6kokh/xR/ghpv8x7Qn5ZWdyP6B7wqyuf6XiNQOZftLK2Ny1wPdv0PxlntBNwmonJ/kQ4xVBqq8omzPj/heme0p0kSgAaAYn2zl5R+8c59p5zQQ+YncYugtf7D9j2jKrOVPQjJKPR4dxnUmvpPtX+ZtC4tvhfI8M/ESnQt+343+YRxCWtCj0Xfqe0PgShUB0PG/7BVN0/jjFGgZfRwr0JR/hHX0xGdgH65q/BL+uZ/kL3cd6fNF/M0ihxbfzFVt1XLwVAZ3v5rR+Yhub/i9P5YBeNWp/Xb0HBDS3q9ggba0yenlEOqDvR+8TeWB3ar8AP5+DpTVv4DNQsPuWhizof5NwC1o6Nfyid9H/koqblcr+yKOZth+D4KlAAxo09AHe4EyyTypXuniwEaMd0QJqS11Iz5oj9ycdPgu1Zn9UXEr1uft2j2gVHVn9xhWp13+oTU1vm/2AR4AcXvzF/B3eyi7DqtCfuC/T9xmFehKfcXyjQrichr6v17QQzkKQYSK+DTb1ur/AB8wZQl6+8/xmU2ruqx3pwzJ+/rb17eLBMFSYRiyFH9/fR995TXQHLH4BCoP0H5bD8vLpP8AUGV6EMHZE6LT35G0KBH0Q/4HWdFp5BR5TrCp6kJ3PZt01XIfkYcuAWoOmu/R6wUB1xv3fSASiYGp8T/MRgerB0QxqepYdrhWCyjY9N9FHSOBOmtLsBKMHmMe3M5TbvjxmSgD7dNkmtFdL6T+hhM33NE5DA6MUJYMx6mp6PpASy2U9Tofj4+jujF2yehClsYT3z9qKA30umGhAt08gHNfxmHz0S53ryDY28rZTkEavwfv1iFI4v09cf4rrERp0TJEbV0n1B1lQVDb3ij3Sgpt9J9qe3Cy5OTor7h7SyF/6nD9p1K833MOo0wLV7TXTtvUdMvZNfEK1pzrYdD18eGmqOIdRiIDa2L70dm+85D8Itdja/MFGzRMMpDAFU/ClV6AkaOveYH+co6TYoz9Zm3rP7TZlpmgfSiIlUytWc+n4nsepjmjyv1fu/tMQ2zR/wBer5dYrvf+he6XaNiwfoIejT/MJs9E7j8M/wAXF9A6r+lGeuD++Gn3a9mkhyY1ELvk9XyN6DTAsTtLpZ3WSvnkfuFfpMAnUssUdv8AuEQp6t/qMwk9E/qe8NTzcvvP0lJoW+/glgBMQOwaf+RP/9oACAECAwE/If8AzCcjhLPp8LnPgD4BZy/pi0rjYw+ATrHhAorgUUfSbwCBxUnLlbrw9F8SHaDcrdfpLeeAGY8nAIVx2/kUtcKnv9IXa8KtCL8KHaMFv5NxD9HguBRK3Xwdk+jzwXeCGMn0arAoA8IFEqVGPooLg93BBmMrzTwZ7wR4Wd4lfRFTrw5Phxqc3h6z6Hvb4WaeK2OFL9DGooPGXFwX9Dl4xaR4hqUlJSUlIleeGeGzxm7g8MPiz89G4NPGDSKjifA6s4Z+e3QLKiV4oLYFEqPjw4Z+bUfALON7hZqZ8V6zha+PDhn52aeOy8B7oh4ZGD3cLdD5GHDPzhty0tL+CjMEeCWdKdKdKdKdKdKdKdKdKdKdKdKdKdKdKdKdKdKdKAOCDMsxj5OHDPzjL5A1BykpKSkpKSkpKSkpKSkpKSkpKSkpKRkt/Kw4Z+cZeVYcM/OMvKsOGfnGXlWHDPzjLyrDhn5xl5Vhwz84y8qw4Z+cZeVYcM/OMvKsOGfm1y5n5U9Jcy/9iAsPgqmSeTDfhKEPMAuJvAuNyyXxRFMeQrAbwBxslnFDB2ieWE7IOEUIG0Uin4BECg7wbhQ/jnN4BCtop8IEFvFcLMeVWoFSjGYq/KQxPVSyXPGbkWozj5bHaAyzXfymiKXzqU0r8Xc8LXp821wq8oHgJk8YOPn4Jl5QTc+dUTJ40ufNsagVNnlBwoxj5m48MnjStF+WR4jZ5QRrR4EwEr4guKw4WXJk8YOIXdEuciIfGNnMgCFDsmzyg4TQjhUfgqgOFwTEWMpk8YYcHMwHgh+EoCcBJy5cxTZ5QQa3xEQl2SnApHojJb4jeZPGDEriBBfACkVFvgFE2eUEqRPmHgKmTxpbqfN3Xhs8oJetQHMcx8kLnPgVL1mTxgwbhwnySwRwG5s8oIqjnwbiGMlfBUQSAIoTlzKZPGGEaD4FIiW41aEBcAhoxTZ5QcYRiJvCRzJZLlkeZGSxb4snjBxxFDmhCsuXKRk8kV8Bs8oJS+dSmTxpS9Pm2uGzyg4WYzFHylwg93DJ40S4xj5bMCuGzygjQGEuBtGCj4BsJCSoUOpk8YYTm8Ah5IlK41BILeC4cngbPKDhXF3g3wUcbgIr04ZTJ4ww4LhOZAvGpXFBA2icGCbPKHcbnwDD4Kp5nw1EVeLKuC58Aj4Shb8AtgVH5Qr04ei+ZZq8LXjKXAIfLC56iVIt+U7DwJgvkIhcF2h41FChDORFnxiZzIBiDDryt4VwQx4BTgEArgBG8euc+A44KcKkpwgOCCcqLflwyCgPgoYZKfJAoRTjVIwp/wCRf//aAAgBAwMBPyH/AMxkH6fWpyYq/AMnN+mKS+KqPwIw4QmKcGgb+kwIjL4iJzJe8KO/xXxKlr6S2TgjCaxlTju/IvL4WH0hTpwt1ZXw394QCvkmmL6PLUW5e+oiWnCjwRfRwAjBV8ItyhuC/RS1G7OAngVOvg02iJwr7Qfoi104c7w6TlcKu30PQVw3fFbnCw+hncXPjKmOvocfGHWHE6VQ8p2/xO3+J2/xO3+INwSCcT5448d2fB718Wfu/R56kevjHrAt4vbNWdVOqnVQmOtV+uGf7YPN+tOtOtAPGhipg34pai2zU+P9D9HDP9sHmy7XRg+DlhevbjQ4VaeKu7cKHx/ofo4Z/tg82zfDfNzT8cd44PAvhgI/BVq/I/Q/Rwz/AGwebZuD8h12ObP85P8AOTDg7afBdiJXAXhAAAAAABXATK/k/ofo4Z/tg82zcP2P2/IS4mXl5eXl5eXl5eXl5eXl5eXl5eXl5eAgV8r9D9HDP9sHm2bh+x+3yr9D9HDP9sHm2bh+x+3yr9D9HDP9sHm2bh+x+3yr9D9HDP8AbB5tm4fsft8q/Q/Rwz/bB5tm4fsft8q/Q/Rwz/bB5tm4fsft8q/Q/Rwz/bB5tm4fsft8q/Q/Rwz/AGwebZuH7H7fKv0P0cM/2webXXR/E6L+IEu6/t8qVUO36J0X8RlvT/g/9iKHxRBfkyT4QgPmC1OTFONSmVxCgOfIRIu0U8aZTxERd4D5YUIwLg94SB8CIwWJFg/HOVwRhzwD4VImIcOd5VSiy3MCvlAz0kGpQ8ZsQLhGflmxKlXbym6L351ialeLdHCs+bS4XeUHywkZ84rNr51j4yx4XHzVRHym8Lc/M2TxtjxwfLIPK9YWscFIJ8a1AIkVKHjLGGY0DU5sC/GknJirHgU+U3gBCHC4fAEPERzBjHxljMuAbRTgI+GCU8BM5vlZY9OKDHgby8vwkAri9vGWPAb4qRPDeX4QwD4Fb5TZQwH5uW/GWPCrR+btHlVlRCA5+StTkRbleMseCVHgH5Ikd4JXlNhjlRIIg4fBCZYLcC5zpj4yxmUOFOAEJrxCsZU4IwvKheIhiY8CqVKeAOBgV47YwzxBjyxlaVKloSJF5ZWVvzrHjLHhefNpeVXhTBH5QHjpY8BqXZ+WZFvyqwoLA1B7wgD4ERgnBIMeMsZlOVwUhzwSXxuIRO0R4c7yovEHaJfBbxqDQDhj4yxmXAWcmLONy+ImLvBPKyaZtfBXygAsYb8WN8Fx8CH4YIPwLUW4NPKLdeFvf5lOOFZ4y1wwPy1qeglyB5TunBCDfIFFeFOr42yPApObAPxoJyYjF8sY4U4CnCvLy8ZLfBGB5A5MUcBnAvL8BTgJnNgV5chifixQwB5ItGb8QvCQv/Iv/9oADAMBAAIRAxEAABCSSSSSSSSSSSSSSSSSSSSSSSSSSSSSSSSSSSSSSSSSSSSSSSSSSSSSSSSSSSSSSSSSSSSSSSSSSSSSSSSSSSSSSSSSSSSSSSSSSSSSSSSSSSSSSSSSSSSSSSSSSSSSSSSSSSSSSSSSSSSSSSSSSSSSSSSSSSSSSSSSSSSSSSSSSSSSSSRwqSSSSSSSSSSSSSSSSSSSSSSSSSSSSSSSSSSSSSSSSSSSSSSSOf8Am8kkkkkkkkkkkkkkkkkkkkkkkkkkkkkkkkkkkkkkkkkknknKOxH/AJJJJJJJJJJJJJJJJJJJJJJJJJJJJJJJJJJJJJJJJJNn2SZZJJ3hJJJJJJJJJJJJJJJJJJJJJJJJJJJJJJJJJJJJJJJJH04v3JJJB9JJJJJJJJJJJJJJJJJJJJJJJJJJJJJJJJJJJJJJJDy5JLRJJJJtJJJJJJJJJJJJJJJJJJJJJJJJJJJJJJJJJJJJJJIPZJJJJJJJJfJJJJJJJJJJJJJJJJJJJJJJJJJJJJJJJJJJJJJJIvJJJJJJJJIRJJJJJJJJJJJJJJJJJJJJJJJJJJJJJJJJJJJJJB9AJJJJJJJJIapJJJJJJJJJJJJJJJJJJJJJJJJJJJJJJJJJJJJD3RJJJJJJJJIx75JJJJJJJJJJJJJJJJJJJJJJJJJJJJJJJJJJAh/JJJJJJJJJJHNpJJJJJJJJJJJJJJJJJJJJJJJJJJJJJJJJJJP5JJJJJJJJJJJJB3JJJJJJJJJJJJJJJJJJJJJJJJJJJJJJJJJJDRJJJJJJJJJJJJINJJJJJJJJJJJJJJJJJJJJJJJJJJJJJJJJJIx5JJJJJJJJJJJJJPISSeZJJJJJJJJJJJJJJJJJJJJJJJJJJJJJPJJJJJJJJJJJJJI/5Lbb5JJJJJJJJJJJJJJJJJJJJJJJJJJJJJP5JJJJJJJJJJJJIJJ//qpJJJJJJJJJJJJJJJJJJJJJJJJJJG2ZFBJJJJJJJJJJJJAHJJIKpJJJJJJJJJJJJJJJJJJJJJJJJJIrbpMtJJJJJJJJJJJIDHJJIKpJJJJJJJJJJJJJJJJJJJJJJJJJI7bXI+VJJJJJJJJJJFf5JJIKpJJJJJJJJJJJJJJJJJJJJJJJJJI7W9JNPwAAAAAAAAB+BJJJIKpJJJJJJJJJJJJJJJJJJJJJJJJJI6ZJJICf/wD/AP8A/wD/AP8A/RZJJJIKpJJJJJJJJJJJJJJJJJJJJJJJJJI6ZJJJJJJJJJJJJJJJJJJJIKpJJJJJJJJJJJJJJJJJJJJJJJJJI6ZJJJJJJJJJJJJJJJJJJJIKpJJJJJJJJJJJJJJJJJJJJJJJJJI6ZJJJJJJJJJJJJJJJJJJJIKpJJJJJJJJJJJJJJJJJJJJJJJJJI6ZJJJJJJJJJJJJJJJJJJJIKpJJJJJJJJJJJJJJJJJJJJJJJJJI6ZJJJJJJJJJJJJJJJJJJJIKpJJJJJJJJJJJJJJJJJJJJJJJJJI6ZJJJJJJJJJJJJJJJJJJJIKpJJJJJJJJJJJJJJJJJJJJJJJJJI6ZJJJJJJJJJJJJJJJJJJJIKpJJJJJJJJJJJJJJJJJJJJJJJJJI6ZJJJJJJJJJJJJJJJJJJJIKpJJJJJJJJJJJJJJJJJJJJJJJJJJAZJJJJJJJJJJJJJJJJJJJJwZJJJJJJJJJJJJJJJJJJJJJJJJJJJJJJJJJJJJJJJJJJJJJJJJJJJJJJJJJJJJJJJJJJJJJJJJJJJJJJJJJJJJJJJJJJJJJJJJJJJJJJJJJJJJJJJJJJJJJJJJJJJJJJJJJJJJJJJJJJJJJJJJJJJJJJJJJJJJJJJJJJJJJJJJJJJJJJJJJJJJJJJJJJJJJJJJJJJJJJJJJJJJJJJJJJJJJJJJJJJJJJJJJMUbZJJJJJJJJJJJJJJJJJIqsrJJJJJJJJJJJJJJJJJJJJJJJDeP4PEfJJJJJJJJJJJJJJJCH9zPL5JJJJJJJJJJJJJJJJJJJJIjR3JKKypJJJJJJJJJJJJJABmnJwLk5JJJJJJJJJJJJJJJJJJJD9JJJJJCNJJJJJJJJJJJJJA5JJJJJoZJJJJJJJJJJJJJJJJJJJFhJJJJJHhJJJJJJJJJJJJJcZJJJJJJtJJJJJJJJJJJJJJJJJJJGpJJJJJJLJJJJJJJJJJJJIPJJJJJJJ1JJJJJJJJJJJJJJJJJJJA5JJJJJJXJJJJJJJJJJJJJ3ZJJJJJOxJJJJJJJJJJJJJJJJJJJBDJJJJJJ3JJJJJJJJJJJJJ/dJJJJJ7xJJJJJJJJJJJJJJJJJJJBZd5JJMRnJJJJJJJJJJJJJ7e5JJI+DRJJJJJJJJJJJJJJJJJJJAToFvoBr3JJJJJJJJJJJJJ2o/0aT4OBJJJJJJJJJJJJJJJJJJJBJGewvhJHJJJJJJJJJJJJJxZFnSRZJxJJJJJJJJJJJJJJJJJJJBRJJJJJEXJJJJJJJJJJJJJ/xJJJJJPxJJJJJJJJJJJJJJJJJJJBeXJJJL2XJJJJJJJJJJJJJ565JJJLYxJJJJJJJJJJJJJJJJJJJAH4npoXIHJJJJJJJJJJJJJ2twdb/dsBJJJJJJJJJJJJJJJJJJJAo5XwTiJHJJJJJJJJJJJJJxIYuyy9IxJJJJJJJJJJJJJJJJJJJBpJJJJJGnJJJJJJJJJJJJJ+ZJJJJJExJJJJJJJJJJJJJJJJJJJBz5JJJJF3JJJJJJJJJJJJJ/2JJJJIRxJJJJJJJJJJJJJJJJJJJAA0rJB9FnJJJJJJJJJJJJJ15ZbI03KRJJJJJJJJJJJJJJJJJJJAfhPAOCp3JJJJJJJJJJJJJVEx/2+1JJJJJJJJJJJJJJJJJJJJJFJJTEk5IjJJJJJJJJJJJJIApJL3dJM9JJJJJJJJJJJJJJJJJJJALJJJJJANJJJJJJJJJJJJIHjJJJJIPvJJJJJJJJJJJJJJJJJJJItUJJJ1Z5JJJJJJJJJJJJJBB5JJI2xZJJJJJJJJJJJJJJJJJJJJLnNPs5lJJJJJJJJJJJJJJJw312SJBJJJJJJJJJJJJJJJJJJJJJJE21vPJJJJJJJJJJJJJJJJJFHbZXJJJJJJJJJJJJJJJJJJJJJJJJJJJJJJJJJJJJJJJJJJJJJJJJJJJJJJJJJJJJJJJJJJJJJJJJJJJJJJJJJJJJJJJJJJJJJJJJJJJJJJJJJJJJJJJJJJJJJJJJJJJJJJJJJJJJJJJJJJJJJJJJJJJJJJJJJJJJJJJJJP/aAAgBAQMBPxD/AMwCqCyjc1AI2feBMSrEzawALVoszXmtSY2lqu2nsmCJZqOH6erGiIPIN1OgNV0IUc1pavNj5NibkoiqrOvszT0AfAhr92vd/wCYQ0FAGp5/mDF7CB3w9FhQifSzbDgC7rRHegYUj1GXgYcFtV3m5PHUgshSjOJb0D86WxsGruXpbipl9KNIA8gCgoANVWB8ASuajR/CkcwNXD0OO7m9UhrW7BfpUT/S7Icigjzf4IJgKiL10FM1TVwHxC6pvKN6e5o7HSjoA0cF/Yc/in6TVdpAF5D3+d2pcjwsGuo70Wqbd63Z1FwFQlJqJkZ2fLtuFO/a9ZU7eyZpq5G9jmkqnanZNTWlmp36Whw+MVtAZVZe3gKKN3Tlybcz4avZarNULVbF8mx0zhqB7ImomiamkPde7JZrqRrW4ZqH1EwIFiJkT6QUC3QMs1iCdygOHCNXkNYQIotNVXdjurQA1L1Ka1ps7RtRBWS9lQJ0XeDJtwJ7D+yIR+61ddBWum9u01FTsTktwAZdLnx0ZEvoNC6rfKrnPkDcG0Sj0LDv19xUupal0FfzdF9IDOXEbECYO+jhV8VI7GJSNq6FFLVhEsegB8NLXLLSsA1WxfJsBgSXkdUarAd0as43kDuDU8/kIBCx0Rwk5GHyCCc6PojWoUbav73R3+j1CqvsqqOxR1jqHOVBelmKQbAE1qOvIOtys6KtKQ6BQagDQANvAg6y1zFv8E54r1eGuHOj6PReHGlk+3vXgxqHWpGLq/H+CXMsM1LqHosmVAnYcibv0YCYSo0AaqrCLStT1yor0HUmkaIQr113qofuWQHuVYvUbQcFXYDOm8NocXAFAdjwJHqdGaFtXD4ootiWjoGiBdxMaIyRsgdc4ivqQK5sVPoFuw/RXIAf/YA1RoGq6EKsmqIjG6M00dRwUpg2KzlU9MhZ3F0A8s96ytSoVy1SkUa3LWj4KwxRzlmO80rU2uXPy6vJuxT1ScLqsCXbB1Bcz0YQ8gf5uP0jqOj9DpDc+ArUugBLgdkQVpldGnqMOGiY/oC1VaAgCK1w3Cx6drvAh26BEAA7eGyJbZaVdKXrmCaAotJqq36ou50hOzUZANIjhI68NVZoS7DweXNREAljqJhPobMH4auHOLTrB4Er1hlfQ2aagdu94rRNTQmCgx+UdFpoB7JpbdeW5dC2r9DaAXfIXUvL8hL2Z01FjloLc4BMIAKANAA8UNo4wPQORGmVJskLQCLu0HUM6Ngour1fiX9C9LlE0VZ7Rure82Jr1Zr7NRsFH8/jLpBk2G71oE08E4zRPuQyQwGojqJwHaLELZRbP8X/AHP8X/c/xf8Ac/xf9y9F9LQdA6PcY5ShdOA0hzHzxmwsC1UAA4NKaHV7qtPR8YdVnprQhHPVfw4BEUhI5GvD7zzfEyS2C6C/+fPB4oqsIlJBzQMFNouKhYEuTSnP8J4wJVMbrF+L9Y+JkDkqtYAbXiF86oCrov4L779NkAAXaTzkD/yH9z/If3P8h/cR6ICLxfUGBVMtc6CnWI1MoDRHYRejDy6fl03QFpNDZE8VzYkkmgDdQG6xZdCCoXankugS6Yt2EfROxR5/sDTAsilyhBmi9fgteifbuiuDepjhXotxEGbTTdczaIPIAoKRHURlnJnoJ1XL8l1QHYosKCxEyPiEAEfB1oaAGqsBmcK9ULGeWc5QNmpqsADKmiCAlzFIsu4g9r38/wBgf3Dm/D68SOEXq/kcX3OCbo1RGrynAUYjSoHKl0b+g1LA4OLUU8zVeaHXwxpdgOsbmruBLMMTRlsIOqujqBgK0argmLfW0NFWEdDnV9ANgf3Dm8NdS7HRloWgriWLJRCii4tAa/AlLDq1atBqOlnNastkDr6Br3SE4FTxQ1On8TwlChQoUKFChQoUKFChQoUKFBEHqUo6OvJ24PH9YgPJOsIlc3DF2aQJcrTZZ9Atgf3Dm/K22i/IPOi+oazEfIXZS2JbNKI12f7T/Vn/AKs/9Wf+rP8A1Z/6s/8AVn/qz/1Z/wCrP/Vn/qz/ANWf+rP/AFZ/6s/9Wf8Aqz/1Z1HnIdabdbvKdsLqk3PwqEwlU5POiWu7n6C2B/cOb9SbbA/uHN+pNtgf3Dm/Um2wP7hzfqTbYH9w5v1JtsD+4c36k22B/cOb9SbbA/uHN+pNtgaVHH8z2n3b/E1lYCUW2HyrTVwKNFkJ92/xGXdxSrPT/wCxAKSWAntA6D7qwpyiTqa9Vuac9vwlUms3dqq78otsOUL1Re89TBB9QeSqBSg1VwEe2XWvXiWcmkN9kX5jsIYqXtS+0SBMtKoOrSYaVLRpdtzHrG6NRjnYR/xDiGtFiO4nl5t5u5TBYauAywMmsKC86KO82yMrSh6E+/HCnbVF3V1eGkgrpFc9DwWWmm1e7YwOGqlVsuiCRArN1E9UVOl7FU0uhd2TeD8Sciwkh1PIGWDC2NSi6HZOpEAyw4hsNPZTvikjtMN66g9LgB4YJT2CHEa0YjuJCBUw1VqCN5pVqp6PA87G1sdF9IMGL9DnfoaOVL5wXedrrvP/AHFeWaMNBUNoHvonY0sK7GW8fYb0Ly3WahZLNXN/KAmpF4Oh1K+qMUN6HPeAKDb0G92Td8UEp1HJOUi1bix0PUZqQesuVeh9IaiZginNFJdi7EwljZcmkadmNnvgS7ur8O87NIveCxHAN0FDmt6bDxiACPg60NADVWWke0hc0QOnUFvJpDmgNtaKCq82Gaig6hzQTgyaKAnmMPUkJq9G1uZ0b5ekwY/ZLGhDfi4Wc8msBIODwsnV1z1jL1qbsD3T2pr0MrAb1iN3uo9BotSJqIm8aUUfZee4t7089EHMaE1kA0Tyk+EsMa2PkovNrdcTyB/m5/QGgaEqoZ0IRY9c1GFJFM2sZQVavmFV5/KpS5FLDyZ75NO4kLvmmCFaMLdDUdSE0QaE1b0AeR/dTX4XegMtdLE3Q7+M1ClkHIsOX1dOo0zhrR7AGqugaukrMcI71WEcmuQzAABQaAYD5QaERQ5PRa7nzOyLwuwdVKYOpoO2RIkoV1R9Fmg6ht2PlJpCt/RYci83lXKaPKc1FW56x8gUAAAUGgBsfMP/AMSG0B0RI1J3r7eim43nSneawx2dECcqU59nizAJol0BK3Bo5ETs1WVDaq5WFgSD0outbU9A4fNBa0dFBa3Qtya2ROzUZANIjhIgxhm0NhyqCct+UdYQyIL+YNBuuUgPLafOUwwGulPzK58NewvVPFmu6ozWhreest0C4lmATqgAUaBg+cBAE2gImNgYjh57dHOw8o+688H3rkoB1uxj5wKF4VjrlZPXCPufL4xyiZQg0iaiJGFASpSAIYPyh80t6dyl6dmR+cTZAfdvXykrfdeeIx45W2BhEsgouRiMCOimXovVT5R0Cq1AGqq7QMoU2q0Xv4ppzHWFVt1XLPufL41yTfGYS9dS6enUURQEXCnNWa4FrZ+WAV0RZcG1PI7tGsK6O1nW6TQ0E9hobvlSt9155RidoEWtLI6vs10Xj4YPqaBEcjDOn0EG2tywoGCaI1mgnfDOvpTOGuJ2VH4mxj0T6oQYyEpSGwbTqKUzJ0vQ21n12rAlu0W+RFjAHK4gUsHWFyF5n3Pl8Y5a4L7rUERpp0lCkzVWdAX/ALDIZJnqI5LMrcdHeaU4IqJuoV5yhDu5HIt/nPj1F3NXzb9lSXRqsAoNKti+Y9+LjEhYU3Rq7shA7RxyjcMaWGvnRrNLgCc6oA1VdPKa33Xnn3XkjtNFT0Cg0IKNDYZEXsmRINltt6KXoHbuRAEe89NUO9UYcdAoshz92QIKkRRXbd8pwlXWoNlitKo/JMabQKctjMkSRPdFmn+/Zq0NUYdKWt7XRulkOaOR6QWNtFaMfQn2rkn3Pl8a51o6oWLUgIEyMSHvdmZF2dOgIuKDp2hvmHKr04DYb/X8W+pB0NSsY5lMCwbJK13pe0YApRcHUtPaWYhyFy2VjZiY8U+2g4S9Wp9qJ7aorUVUR6MdQHvSH88TC2AB5VQrfdeeBdMdEShzo3lZx027SPumt6ojwbqJu/CdBJrkBtd57Cd6Iat5veg4OarG8leRgRezGqNXttUs6kI5bnWvZIQr8tyrdCW9XiHc3muYOTSpySfc+XxjnsVa6XWOpCADNuYXyS6TZ4IJTqOSaqEKyLupP1RBfLH6AHvXLiu1rMbSGrzsu+x+6OJugYOg2fmPFRuaC9tZpEhMVqW73SrtDdCTgbAE3tQ6BQagDQANuDnEjoO0XABcuvC5sRNW9zW8prfdeeMJmJTZ0V1Y7AdoIUIICraVaPwmpZ8wyIEUcw55xNOrQ2VVxg2BswGwT7ny+NcoWU2+qFNkPqWpYBMIQbEdRE+YVg2TZSkW4azSt108prfdeeVJlXI0g7wZGMMMmqB0Vu9+VjJTrAFpS1Gos16m2gb4LXOp3LUdn5GJSnx5WhbsS/YClhi6Rf8AAj0mzlDAFGwADYhKhrwEnXAcL0zc+58vjHIsiFKwNzsWy37MGUxuJqJomppLxK4uWtcqe9yVmZzGKByIvyUIYpbxOwPdufeQkOp2p0TQAz20IJNqptQAqXYg9SiC2Emwtqa8prfdeeGx1SurUeTqOzrLSvYYWaSByEdRHvfXeEAY3RFj1X/xmHnHItXXCS7bu37YGz73lWWobx1202neBIi6ij3UIBXo40DLVcpB0QYbNMtlr0QzTeHWHNBfWBHq2AYO1rToaTeeL6Me6QEpA44QalNfbBpAk/gPSgADQCfc+XxrnWDtYAbsTiz+OnWJd30V5g31FvqQUbNEwzSlqV0NgAgG2VWa50BfU9IQDTKKzvF2DSz9XO+HS4wGGDB7a3tERlZzRpaD3QKJ5tJ2nIqkylyNRPJY9Bqtarqqu8dIwqI7m5b2PVJpd6YEc2U7CrdeVUK33XniE7obsSyuT+zhT5BK+7IU3UmOa8wwulnfMGTo/DqJHso3kClNaal701Y42XeRoak+6/4iINqgWiFpqbRMb2L81FR9VZkuwp+EQynLY91/V0mujoenmgLdXXgt/Vg0vqKn3Pl8Y5bkHFaM5a7EEAljqJhODWqtTVcjZ1iT121KOTT/AAx9dAY9pNJqzSwNa0VX0jRvUDR5IkGaGXB/zlkZdb6Zu3nE05zXb5n/AAnOCCH6ao6wygAOAm4hRslusAAFBoBgOBzlFtmoo8lseU1vuvPOdPeDbeWp0W4DsUWFBYiZH5gIHPDrUYStIigxq55fKzZPufL41yXkSM7tio3r1fNaS8NKSgde+tDnSJlKjarqqvlNb7rz8NZTpDYxYHVpW7dS0rLLc10iflK0Cgt02Pc0vDdIoKUVsAGm4H1Hg+58vjXN2so7J2RNEdE0dJo7ezW87Ztx9GqATCEGxHURPlCuWELZeiS3b2WFJTsB4TTbDyqt9155pNjAIKWjUcXZs5tqsBfGb0GvYG5NO+QwG9Gib6DKtgC/dA7L3cFoaKwv0Q6hDWCqOeSKHokEAljqJhODcGsUAHVYEoy9eVZoJ+hBnIa9FrWusGhEUwGMCzunOKJOwPzSrGNwo0Ayb/8AqhrGIgzHRijS006HVtfufL4xyNAo1iIojFZGglzqqIPxc2IcjQ+bYQneeiaY8l3beymhL4u1yrn7PArWzZjytD0UCKWAHveLsJLR9c7ZCb90p6ajV7zV1sELslB6MumtAFzKij0U6QDjj1RQA1VYcuVed8WNfy+/MxtootAAANjymt9154zsW/hBEnQH5BRl6lKCzyLF7vQbRdoakqhvUD6xopVbLqAnDmr8it9RrFylxkUFDI1L5WvA1ko87CsXqivS+Wju/wCiMD+ljHU/CmDhyMGaAFAHSfauSfc+XxY4WIeRqPykEEtGgAqvD8Z+F+kpetrW4zLG1cjkGv1Yrq49XpcXIKtzMrnQggA1A4elwgRRaaqu7w0IRFY7I9SNOElwxuKjunbg4zrFW31gX3APLgzEA7G9QJ6JUIlXMpooyX0s8oR+fXe0Xv7qJirXNuS96cOr4Nn96R9gjyq1Ni2dAxiBhPMD3v3gh2l29FofdK8yxpTTbWaxRK4ckD8WFMeBOuQh8BZ3wWnWlnteidBSEH8XNNtBi9Ln6JRxRhdESxOzEvjZAAIbVq5kO/wO2f2XXmtD6MuW62it9KV52i6o699t7RcPLejTppoqBONnU6kvtNUEoieo98ACjQMHG2s3pLrAdRlO+meLQF7Xoi/bbFNGjeZ3RPKLjwD2sgBlVvr6IvAzy20HJheYLm+GRw98+ouvl6+XBw0QtMmo0+boKpLAraD8qs0Ejpoz6K3VV4s/URAgUiORIqijWinXmBtzKgkctFrYI7tpw4eZVlwzCXvu9nJZ8sYs2+rdhWvYFdppoFeAHVk0LqUOtsbgwQtAs2vWjdBDrnjsQfg8oQSnUckRiwVauonVXLmGkde3qAfZIYeoim6VTomyPRKMTCQC0Aa3ONTpDCnbRB3E0fiG1VihzUAl4ZAOvtoO810h2LVhXb1UBN4DQdc2osFXkRUtR9GUrLA2NM9fGm2g7AhFh1HZNGxSNH0inPMmgat2s1mkLP1SN9IpBePUNvVHcW6CAlW6hfbT8ahpqwi735SYb/Uu5OxDW3y9BPJj0Lot3tj5ElZX/J5DVsTTH1IEdTVOvQ5qr5Uku8oHUWu5p2o/i6iTqI0TOoQgBRSaImzNekWjTsR6oCuDNPUs9Yqw27X/AC1gf4szwFui44tQSC1ByP2ldffXXV8mhH12JHMALVig1JUXOWl+6R+DDWjQ6F8kvm8esRjs2wEYv8rdsfTI9giMgOo7/lUAEUWGiJuQzTaeNyKX8QwKlWuNVm2XSHpe8Nrs/uimbGFa7h+6Dos4dFjHRQbUxVCciLHSo4U7aou6urNRBA2beZRdQgyiTVOhgOoHoYZYaGs3XdN9R38uoTynQHIq/SGLJOxqgRaaLmP1hwBVlfsP2593fxBhVhX06tZExO5p9Cg/EQASICVFNeJKWZ0n1TyM9doRzIqxIlerqEXLkeqioVzI6NJ3hhRWLtpsAe8XAtysB3mqKOvPfe0fFLVhXnZEVG+Vfa3l5nToS1zNsCD+i05BB/5E/9oACAECAwE/EP8AzAFxW6dOZYfp9FRmDn8ZiCvgyZFNdfSIjT9LBc6bFmTilRDdM8NKNUViideEyXN9p4G9ecR0/SerYJlNYBjjmSKa6prjlFAtjKj4mgusALMTsj6S/oeGVQ9k6B9+sXcm+09eO19fka8w8NVPpBYvgxw6kiLb8OgusCLG4yV3+TVstty+j2QG8MA2mMy8E/dBfY+j77cuFl008FQesddj6N1p0JmNZgCotF+CJUHLgjUzU+inVGZqjrwZ1UFzZpAz4NBWhmMb4BrNIRU/Q4QNTKLUR0/OKufDIrJZp+fCtZh9D6w24XK4PFb304a2Yfoas66yzfFjUq4tOmv0KFwKKmkHjNYQWVxcH4f92oyp88xcM/GP4uGXDH8X6PPaA85aXl4ylvNlg8uKhVS3KW5S3Kapw/R5vTKZTK46Bygst4yp8U4BvDANppPP48PD9HmxDr8FgcewvCn4kBK1sLU1nb48PD9Hmxj4bDjR7XDVDSMmeGx5NUzwdAb/ACMPD9HmxjgZ0zqM6jFOfgXRqIZY3wyQTop0U6KdFOinRTop0U6KdFOinRTop0U6KdFOinRTophg4E2qiadHyWHh+jzYxwy/IVWNQ+dYbxOmzps6bOmzps6bOmzps6bOmzps6bOmzps6bOmzps6bOmx2iOxpEVvysPD9Hmxjhl8qw8P0ebGOGXyrDw/R5sY4ZfKsPD9Hmxjhl8qw8P0ebGOGXyrDw/R5sY4ZfKsPD9Hmxjhl8qw8P0ebGOGXyrDw/R5sCsynOPX5UVZTnHfo/wDYmELi9odKdqPRgdohk8mwwwfadqdqJ7TID5giojMqm0cUG860A44IOZsFdpr2qImj5BjiAyuY849adaXwzBcXyTPGnlivKCKEMtagMLm/VMgvwYZZmNYvkgCyAa5jtOPGhNz8YFTPOsZhMoxVzxFJgFhMLm+08B1aWIjT5Tp228AUQtOqHbW/lK2oGh0gDTFofGVl87QBbiaboPl6S6wDZKdMPKaLrrNEMvzRRsms7y7peLqzgtRh81+hvwuuuvlA0I/Z856pD+DxY9kdJPnpbOUOjyjCWgdvnau5Z7DxeTt/XB1PmoQgCiZ+UMIl6Rter5hv4eHsPF5O39cDqYxT8tGiAevDPyhhC2iDc1PDMJrFGfiTAuZLSYLMALYKhgnsPF5O39R0mGcoAUwnVzMnx48nOfiE0FQDXPKKa7zPyhhP0zDY5TOaMG4hzE7R6s70BmEIAYiAtnOjHtWZp7DxeTt/Uz9mDU0TVMG8MsEV2nenege0wQcMmxXSVLbPZTPyhhFDzccQ1AZ1hzwctnQfv1jy2LtDekXJvi9Mew8Xk7f1BZURU8cYwOQgdydBnQfv1jtE2QTMPELlacpn5Qwg0Mcp+Y7RiGaMT2Hi8nb+uHUHzUv8XDPyhhAvMgtCahqPeImj8hFRrFddMMUYgWm89h4vJ2/qKi4AsxNcwzPGnyccTXXVihqwhZiZ+UMI1pBdPzgCyZkuOxZNkx6U6MOlF3YTOsEoKhlrUv0/OK1PYeLydv6mfsxDTE6M8M6TZMdlI8FN1IO7No4Z51nTDlPZTPyhhD7ODNqoDC4rOkRsg28pEssFshsWxeNIqtb4HVZ7DxeTt/UNo6ccCw9n4id4LhJSUieUg94eybrXbiKHaZ+UMJqhk+aCtE0neew8Xk7f1w1Yy+a/QM8M/KGHAteiGaSvlIUJqOeD2Hi8nb+uACnE1zUfL1l0IZo4Z+UMJ03CLIIpLiMqhtrmWH4MEMZnSZbWACiDa55Rys9h4vJ2/qZ+02PzgiWTNEfdNiijJxE4mEIzKpiTWLANM+cahZn5Qwn6YIbIbmm+V3gjjggzpQOCDM3S+00ohbmaew8Xk7f1M/bhkkBwmLeKHaB5cc8wGFzNPD20z8oVjMJ+BDDA7w5s7UebF7oq5+DXXeWvXxdL14Kp8GGWA7ztR6UX3mSX4FIJQA2l9OXlFq2GIJTH1GvzDchw0QweMPqbwD1itPy3VEM2wNjEVvlN37eGrmjNlvt8YLiZTSalli1mdAeNvBCdM8oTSXN5zNnx4kuM5VBaEItlgfK9GyTfaevDIFxO0eYzrsOpA7QcCotTHasy2OXjxDZFNPzmXcMgEV5zqs6rAucwgcCdWpsfnFVvl2LYHIM3RDrcF6kHYjsUTOt+RjU3yLuQ3Rh1p3o7Ixdib1XaKuf/ACJ//9oACAEDAwE/EP8AzAtRDcnUicJ9PgLY2IyjfwYthOkCJZ9LLU6hAOHiJtimuOGrOkBm2dCKwzqZwY6QzZ9J6flmC0inPHFMN00TRjBAVogm34h6zRiKmdsfpL+84YUj7s67B2Z1M4730+RpjJw0nl9IUqZ4dMQAUfCWs0hDSVCAHyb8lVOf0eQVjK2ZDB4L9UdDv9H1158KjwVigsfRulGrGY0mUbgW14JlxefCmnuj9FALZphpwYgg3KaovBmdxMoVwbS6wCWfRGMgLhGv4wK8MCUze/HhZpy+h9Mb8KS2fFbH14aI5Poa0lWeLS5ZkrOv0KtRbZrL4zSMVN8Vrsw6CdaXWl1pdaRtG+Kr8P8Axn8tAcx7eeZuGL4z+TgY4fcOfxJfPaaFJQjn4yyvKVBxV4LNUbz/ADyf55P88jDUzPUP88Pf/N3oPzOg/M6D8xKhHjqPOKSbQBZ4ohbGRd5dfl8l73/zZMLXJsUb93PwcsX5Gj7ce+8LNseKs0QFzRd/kve/+bPuH4b4wW7/ANin14/znDSHUmHfDZNmkYOHXHynvf8AzZ9w8FijJZ7yT7c/ifbn8QWjXkP0+AtWhjqk4Dws60606060606060606060606060606060606060XleDNBD1ur8t73/wA2fcPynhFJG40jtM65OuTrk65OuTrk65OuTrk65OuTrk65OuTrk65OuTrk65DeYfOsAUfMe9/82fcPlzz3v/mz7h8uee9/82fcPlzz3v8A5s+4fLnnvf8AzZ9w+XPPe/8Amz7h8uee9/8ANn3D5c897/5s+4fLnnvf/Nnqad0/30NxTz+VTeg5Rl/vochV86f+xHKNRDeMu5CQ28A48mySRDed6dyCbxeE8wAWwDC5vnETOlFHAam+X3nJEEceQZdiMKmcePSnS44BgOaYvPlneIrbFVBGZVBbXAYPgRkIzGkBjWINMc0gGnjtr84tzBkPdNggBjilzIBGYamz2cGNNRBEs8p1DeItsXXhDFB8oWkj6jWHdkOw8ZY0xvEVE1DU/L1E0Y7plmnLymw6TWnB81BKZom0q63i7d4Dc5fmh1OFF08oyYfd846Ewd/Fr3Q2Pnml3j0fKMpSq+dohtMXfxePv/fASfmiyxW2zF8oyg1B0ZfMH+Thi7+Lx9/74IrIZZ8sm2OunDF8oyi7xEqafkmY0gjj4gyZhtZnsQS0RgXLMXfxePv/AHDYIx0iKyIYTHPx5pnIRy1immIaBtMXyjLhZrMwWsSoIxBbwl2IyRvFXMBWickQjSYpi7+Lx9/7mHvEuO10TLnDAMC3nanai28yy8MeQjWAAomaYvlGUtRy45QuKxpHlY88nXPv0hziB3YDrAwOOuRi7+Lx9/7g03AFnHMEThYvZnXJ1yD3ZumYw4rUuGYvlGUa4gNnzAFuY6tmLv4vH3/vh0x806/JwxfKMour2iNk5YYI4+QAthmmqIrYur2mLv4vH3/uBbURUzQMkwb8nJs0U0IFxFTMXyjKE1Ypr+MQaZiGoHOsHch1uA9SDsR2NIqtbiqglOv4wUJi7+Lx9/7mHvBNczrZwxDF3Ib48adkYuxN84YvE7hM0xfKMo/dwI1LjMNQWNYlsxZtLQbaCbMTnSFzrAFBwegTF38Xj7/3HQeOXI+6C2ieRlpaC4GI2j7s2C+Ltd5i+UZTQnD81QLZqm0xd/F4+/8AfDTnJ80OpwxfKMuC6XUhlj8oW1j6MHDF38Xj7/3wRWQtGh+Xopqx3bwxfKMp1DENYqshMLiOkRhPgHlIbGsXjSKrbMRiAQmLv4vH3/uYO83vxiI0zDsPZN0gHHFBmbhDYTLunBnX8YKUxfKMuEglMRyTaL7RK4Ck60XgJxOmTLawKmKYu/i8PeYO/DIkQymaONuctz44wiMqmHOGSYvlF6TIvgQ5i23A70ORANoAY+DSDaVnTxdpwAn4MsEX2nenege0DgPgMWywsrvz8ooUyQUbIGl0+YHRlw1Jy+M7BHXSA2fLMWxFRC0EAKPKf6ThpDqTeK+NQnVJpeCBc648aBpimuI5YzkJjH48wwDC4jaxiiAKPK9SwzqZwwjUC3hySdMj0YreJkwLmS0JiM+PQSmE6xnThhlgU6ZOmRblMg8MQXN6AFHl2eInFkXsx6HCOhB7sDnWYg8jS5tEHZjtpO1O1DfSDuzbLgBj/wAif//Z;" vertex="1" parent="cPPZrzrKtQ6V4R_FcOBa-30">
          <mxGeometry x="119.99777777777778" y="14" width="86.06" height="54.62" as="geometry" />
        </mxCell>
        <mxCell id="cPPZrzrKtQ6V4R_FcOBa-34" value="&lt;div&gt;&lt;span style=&quot;background-color: transparent; color: light-dark(rgb(0, 0, 0), rgb(255, 255, 255));&quot;&gt;&lt;br&gt;&lt;/span&gt;&lt;/div&gt;&lt;div&gt;&lt;span style=&quot;background-color: transparent; color: light-dark(rgb(0, 0, 0), rgb(255, 255, 255));&quot;&gt;&amp;nbsp; &amp;nbsp; Payment Gateway&lt;/span&gt;&lt;/div&gt;&lt;div&gt;&lt;span style=&quot;background-color: transparent; color: light-dark(rgb(0, 0, 0), rgb(255, 255, 255));&quot;&gt;&lt;span style=&quot;white-space: pre;&quot;&gt;&#x9;External API&lt;/span&gt;&lt;br&gt;&lt;/span&gt;&lt;/div&gt;" style="verticalAlign=top;align=left;shape=cube;size=10;direction=south;fontStyle=0;html=1;boundedLbl=1;spacingLeft=5;whiteSpace=wrap;" vertex="1" parent="1">
          <mxGeometry x="606" y="470" width="214" height="130" as="geometry" />
        </mxCell>
        <mxCell id="cPPZrzrKtQ6V4R_FcOBa-35" value="Stripe&lt;div&gt;Paypal&lt;/div&gt;" style="verticalAlign=top;align=left;shape=cube;size=10;direction=south;html=1;boundedLbl=1;spacingLeft=5;whiteSpace=wrap;" vertex="1" parent="cPPZrzrKtQ6V4R_FcOBa-34">
          <mxGeometry width="80" height="50" relative="1" as="geometry">
            <mxPoint x="20" y="66" as="offset" />
          </mxGeometry>
        </mxCell>
        <mxCell id="cPPZrzrKtQ6V4R_FcOBa-37" value="" style="dashed=0;outlineConnect=0;html=1;align=center;labelPosition=center;verticalLabelPosition=bottom;verticalAlign=top;shape=mxgraph.weblogos.paypal" vertex="1" parent="cPPZrzrKtQ6V4R_FcOBa-34">
          <mxGeometry x="151.74545454545455" y="25" width="33.07272727272728" height="46" as="geometry" />
        </mxCell>
        <mxCell id="cPPZrzrKtQ6V4R_FcOBa-39" value="Payment" style="html=1;whiteSpace=wrap;strokeColor=none;fillColor=#0079D6;labelPosition=center;verticalLabelPosition=middle;verticalAlign=top;align=center;fontSize=12;outlineConnect=0;spacingTop=-6;fontColor=#FFFFFF;sketch=0;shape=mxgraph.sitemap.payment;" vertex="1" parent="cPPZrzrKtQ6V4R_FcOBa-34">
          <mxGeometry x="120" y="79" width="70" height="40" as="geometry" />
        </mxCell>
        <mxCell id="cPPZrzrKtQ6V4R_FcOBa-40" style="edgeStyle=orthogonalEdgeStyle;rounded=0;orthogonalLoop=1;jettySize=auto;html=1;exitX=0;exitY=0;exitDx=50;exitDy=0;exitPerimeter=0;" edge="1" parent="1" source="cPPZrzrKtQ6V4R_FcOBa-2" target="cPPZrzrKtQ6V4R_FcOBa-4">
          <mxGeometry relative="1" as="geometry" />
        </mxCell>
        <mxCell id="cPPZrzrKtQ6V4R_FcOBa-43" style="edgeStyle=orthogonalEdgeStyle;rounded=0;orthogonalLoop=1;jettySize=auto;html=1;exitX=0;exitY=0;exitDx=40;exitDy=0;exitPerimeter=0;entryX=0.438;entryY=0.993;entryDx=0;entryDy=0;entryPerimeter=0;" edge="1" parent="1" source="cPPZrzrKtQ6V4R_FcOBa-4" target="cPPZrzrKtQ6V4R_FcOBa-8">
          <mxGeometry relative="1" as="geometry" />
        </mxCell>
        <mxCell id="cPPZrzrKtQ6V4R_FcOBa-48" style="edgeStyle=orthogonalEdgeStyle;rounded=0;orthogonalLoop=1;jettySize=auto;html=1;exitX=0;exitY=0;exitDx=35;exitDy=0;exitPerimeter=0;entryX=0;entryY=0;entryDx=30;entryDy=70;entryPerimeter=0;" edge="1" parent="1" source="cPPZrzrKtQ6V4R_FcOBa-8" target="cPPZrzrKtQ6V4R_FcOBa-12">
          <mxGeometry relative="1" as="geometry" />
        </mxCell>
        <mxCell id="cPPZrzrKtQ6V4R_FcOBa-51" style="edgeStyle=orthogonalEdgeStyle;rounded=0;orthogonalLoop=1;jettySize=auto;html=1;exitX=0;exitY=0;exitDx=50;exitDy=90;exitPerimeter=0;" edge="1" parent="1" source="cPPZrzrKtQ6V4R_FcOBa-16" target="cPPZrzrKtQ6V4R_FcOBa-20">
          <mxGeometry relative="1" as="geometry" />
        </mxCell>
        <mxCell id="cPPZrzrKtQ6V4R_FcOBa-55" style="edgeStyle=orthogonalEdgeStyle;rounded=0;orthogonalLoop=1;jettySize=auto;html=1;exitX=0;exitY=0;exitDx=80;exitDy=80;exitPerimeter=0;entryX=0.444;entryY=1;entryDx=0;entryDy=0;entryPerimeter=0;" edge="1" parent="1" source="cPPZrzrKtQ6V4R_FcOBa-8" target="cPPZrzrKtQ6V4R_FcOBa-16">
          <mxGeometry relative="1" as="geometry" />
        </mxCell>
        <mxCell id="cPPZrzrKtQ6V4R_FcOBa-59" style="edgeStyle=orthogonalEdgeStyle;rounded=0;orthogonalLoop=1;jettySize=auto;html=1;exitX=0;exitY=0;exitDx=90;exitDy=50;exitPerimeter=0;" edge="1" parent="1" source="cPPZrzrKtQ6V4R_FcOBa-16" target="cPPZrzrKtQ6V4R_FcOBa-34">
          <mxGeometry relative="1" as="geometry" />
        </mxCell>
      </root>
    </mxGraphModel>
  </diagram>
</mxfile>
